<svg class="animated" id="freepik_stories-beach-house" xmlns="http://www.w3.org/2000/svg" viewBox="0 0 500 500" version="1.1" xmlns:xlink="http://www.w3.org/1999/xlink" xmlns:svgjs="http://svgjs.com/svgjs"><style>svg#freepik_stories-beach-house:not(.animated) .animable {opacity: 0;}svg#freepik_stories-beach-house.animated #freepik--background-simple--inject-2 {animation: 1s 1 forwards cubic-bezier(.36,-0.01,.5,1.38) lightSpeedLeft;animation-delay: 0s;}svg#freepik_stories-beach-house.animated #freepik--Clouds--inject-2 {animation: 1s 1 forwards cubic-bezier(.36,-0.01,.5,1.38) zoomOut;animation-delay: 0s;}svg#freepik_stories-beach-house.animated #freepik--trees-2--inject-2 {animation: 1s 1 forwards cubic-bezier(.36,-0.01,.5,1.38) fadeIn;animation-delay: 0s;}svg#freepik_stories-beach-house.animated #freepik--House--inject-2 {animation: 1s 1 forwards cubic-bezier(.36,-0.01,.5,1.38) slideDown;animation-delay: 0s;}svg#freepik_stories-beach-house.animated #freepik--Water--inject-2 {animation: 1s 1 forwards cubic-bezier(.36,-0.01,.5,1.38) lightSpeedLeft;animation-delay: 0s;}svg#freepik_stories-beach-house.animated #freepik--trees-1--inject-2 {animation: 1s 1 forwards cubic-bezier(.36,-0.01,.5,1.38) slideLeft;animation-delay: 0s;}svg#freepik_stories-beach-house.animated #freepik--Chairs--inject-2 {animation: 1s 1 forwards cubic-bezier(.36,-0.01,.5,1.38) zoomIn;animation-delay: 0s;}svg#freepik_stories-beach-house.animated #freepik--Floor--inject-2 {animation: 1s 1 forwards cubic-bezier(.36,-0.01,.5,1.38) lightSpeedRight;animation-delay: 0s;}            @keyframes lightSpeedLeft {              from {                transform: translate3d(-50%, 0, 0) skewX(20deg);                opacity: 0;              }              60% {                transform: skewX(-10deg);                opacity: 1;              }              80% {                transform: skewX(2deg);              }              to {                opacity: 1;                transform: translate3d(0, 0, 0);              }            }                    @keyframes zoomOut {                0% {                    opacity: 0;                    transform: scale(1.5);                }                100% {                    opacity: 1;                    transform: scale(1);                }            }                    @keyframes fadeIn {                0% {                    opacity: 0;                }                100% {                    opacity: 1;                }            }                    @keyframes slideDown {                0% {                    opacity: 0;                    transform: translateY(-30px);                }                100% {                    opacity: 1;                    transform: translateY(0);                }            }                    @keyframes slideLeft {                0% {                    opacity: 0;                    transform: translateX(-30px);                }                100% {                    opacity: 1;                    transform: translateX(0);                }            }                    @keyframes zoomIn {                0% {                    opacity: 0;                    transform: scale(0.5);                }                100% {                    opacity: 1;                    transform: scale(1);                }            }                    @keyframes lightSpeedRight {              from {                transform: translate3d(50%, 0, 0) skewX(-20deg);                opacity: 0;              }              60% {                transform: skewX(10deg);                opacity: 1;              }              80% {                transform: skewX(-2deg);              }              to {                opacity: 1;                transform: translate3d(0, 0, 0);              }            }        </style><g id="freepik--background-simple--inject-2" class="animable" style="transform-origin: 251.798px 273.787px;"><path d="M485.17,246.36c-.56-39-15.88-76.6-39.2-105.65a204.35,204.35,0,0,0-48-43.47c-18.6-12-38.83-25.5-61.27-27.57A44.11,44.11,0,0,0,320,71c-20.93,6.24,20.49,28.48,25.9,31.73C288,78,228.1,52.85,164.81,55.22c-12.2.46-24.86,2.1-35.59,8.87s-19,19.84-17.43,32.79c1.32,10.7,8.55,22.66,1.77,31-1.94,2.39-4.69,3.81-7.38,5-13.85,6.29-28.79,9.6-41.91,17.61C44,163,30.1,185.77,23.68,209.76s-6.12,49.2-3.6,73.61c4.75,45.93,17.65,91.5,43.77,127.22,37.3,51,98.46,77,159.72,81.3,74.13,5.18,154.49-22,203.51-84.79,7.27-9.32,13.93-19.64,16.58-31.33s.55-25-7.59-32.68c-2.19-2.06-5-4.26-4.78-7.47.32-4.34,5.54-5.81,9.52-6.72,26.09-6,41-37.63,43.7-66.1A150.93,150.93,0,0,0,485.17,246.36Z" style="fill: rgb(146, 227, 169); transform-origin: 251.798px 273.787px;" id="elaccux7o76ap" class="animable"></path><g id="eltcjyehyp7ya"><path d="M485.17,246.36c-.56-39-15.88-76.6-39.2-105.65a204.35,204.35,0,0,0-48-43.47c-18.6-12-38.83-25.5-61.27-27.57A44.11,44.11,0,0,0,320,71c-20.93,6.24,20.49,28.48,25.9,31.73C288,78,228.1,52.85,164.81,55.22c-12.2.46-24.86,2.1-35.59,8.87s-19,19.84-17.43,32.79c1.32,10.7,8.55,22.66,1.77,31-1.94,2.39-4.69,3.81-7.38,5-13.85,6.29-28.79,9.6-41.91,17.61C44,163,30.1,185.77,23.68,209.76s-6.12,49.2-3.6,73.61c4.75,45.93,17.65,91.5,43.77,127.22,37.3,51,98.46,77,159.72,81.3,74.13,5.18,154.49-22,203.51-84.79,7.27-9.32,13.93-19.64,16.58-31.33s.55-25-7.59-32.68c-2.19-2.06-5-4.26-4.78-7.47.32-4.34,5.54-5.81,9.52-6.72,26.09-6,41-37.63,43.7-66.1A150.93,150.93,0,0,0,485.17,246.36Z" style="fill: rgb(255, 255, 255); opacity: 0.7; transform-origin: 251.798px 273.787px;" class="animable"></path></g></g><g id="freepik--Clouds--inject-2" class="animable" style="transform-origin: 245.265px 63.7588px;"><path d="M272.41,68.06H99.85l.28-.68c0-.1,1-2.42,5.11-5.62,2.59-2,4.66-1.28,6.66-.57a10.78,10.78,0,0,0,3.57.81c3.74.06,4.74-1.73,6.54-5,.46-.81.89-1.67,1.31-2.5,2.07-4.14,4.22-8.43,10.38-7.27a18.72,18.72,0,0,1,4.12,1.48l1.19.53a9,9,0,0,0,5.12.9c3.65-.73,4.18-6.16,4.53-9.76,0-.48.09-.93.13-1.33,1-8,11.14-17.56,24.8-18.93,7.59-.76,15.74,3.86,20.46,8.78a31.8,31.8,0,0,1,4.38,6.37l.14.24c2.09,3.68,4.07,7.16,8,9a20,20,0,0,0,6,1.41,21.38,21.38,0,0,1,6.11,1.42c.16-.33.32-.67.47-1a21.11,21.11,0,0,1,2.37-4.21c2.56-3.27,7-6.35,11.16-5.84,7.42.91,12.94,7.23,13.46,12.57,0,.26,0,.56.07.87.17,2.17.46,5.8,2.25,6.24a3.91,3.91,0,0,0,2.55-.57l.63-.35a9,9,0,0,1,2.27-1c3.51-.81,4.69,2.09,5.83,4.89.23.54.45,1.09.7,1.63,1,2.23,1.52,3.13,3.27,3.12a4.66,4.66,0,0,0,1.8-.51c1.1-.48,2.34-1,3.85.42a10.39,10.39,0,0,1,2.78,3.75Zm-171-1H270.92a12.2,12.2,0,0,0-2.2-2.68h0c-1-1-1.72-.68-2.76-.22a5.61,5.61,0,0,1-2.19.59h-.07c-2.43,0-3.14-1.56-4.12-3.7-.25-.55-.48-1.12-.71-1.67-1.24-3.05-2.13-4.89-4.69-4.29a7.84,7.84,0,0,0-2,.89l-.65.35a4.73,4.73,0,0,1-3.25.66c-2.49-.61-2.8-4.53-3-7.13,0-.31,0-.6-.07-.86-.48-5-5.64-10.81-12.58-11.67-3.77-.45-7.87,2.42-10.26,5.47a20.64,20.64,0,0,0-2.24,4c-.23.5-.46,1-.7,1.48l-.22.46-.46-.24A18.64,18.64,0,0,0,212.5,47a20.81,20.81,0,0,1-6.32-1.5c-4.25-2-6.4-5.76-8.48-9.41l-.14-.24a30.51,30.51,0,0,0-4.24-6.18c-4.54-4.74-12.37-9.19-19.63-8.48-13.18,1.32-23,10.4-23.9,18.06,0,.39-.09.84-.14,1.31-.38,3.89-1,9.77-5.32,10.64a10,10,0,0,1-5.71-1l-1.21-.54a17.32,17.32,0,0,0-3.89-1.4c-5.43-1-7.23,2.57-9.31,6.73-.42.84-.85,1.71-1.32,2.54-1.86,3.32-3.1,5.51-7.43,5.46a11.65,11.65,0,0,1-3.89-.87c-2-.7-3.56-1.26-5.71.42A19.31,19.31,0,0,0,101.44,67.06Z" style="fill: rgb(38, 50, 56); transform-origin: 186.13px 44.0488px;" id="elqhyro1rt13" class="animable"></path><path d="M483.86,96.17H382.93l.28-.68a9.4,9.4,0,0,1,3-3.36c1.59-1.24,2.85-.79,4.07-.36a6.28,6.28,0,0,0,2,.46h.06c2,0,2.53-.93,3.56-2.77.26-.48.51-1,.75-1.45,1.24-2.48,2.53-5,6.26-4.34a11.07,11.07,0,0,1,2.44.88l.69.3a5,5,0,0,0,2.86.51c2-.39,2.26-3.46,2.46-5.48,0-.28,0-.55.08-.78.56-4.76,6.56-10.39,14.61-11.19,4.48-.44,9.28,2.27,12.06,5.17a18.57,18.57,0,0,1,2.58,3.74l.08.14c1.2,2.11,2.34,4.11,4.58,5.15a11.46,11.46,0,0,0,3.44.81,12.51,12.51,0,0,1,3.42.76l.18-.41a12.66,12.66,0,0,1,1.41-2.48c1.52-2,4.18-3.79,6.68-3.48,4.41.54,7.7,4.31,8,7.49l0,.52c.1,1.2.26,3.22,1.16,3.43a1.92,1.92,0,0,0,1.33-.31l.36-.2a5.4,5.4,0,0,1,1.37-.59c2.22-.51,3,1.33,3.64,3,.13.32.26.64.4.94.59,1.3.85,1.72,1.71,1.69a2.44,2.44,0,0,0,1-.27,2,2,0,0,1,2.47.28h0a6,6,0,0,1,1.67,2.27Zm-99.29-1h97.75a7.73,7.73,0,0,0-1-1.2h0c-.49-.47-.77-.35-1.38-.09a3.19,3.19,0,0,1-1.35.36c-1.59,0-2-1-2.63-2.27-.15-.32-.28-.65-.42-1-.7-1.72-1.16-2.67-2.48-2.37a4.71,4.71,0,0,0-1.11.5l-.39.21a3,3,0,0,1-2,.4c-1.6-.39-1.79-2.76-1.91-4.33l0-.5c-.27-2.74-3.26-6.12-7.13-6.6-2.12-.25-4.42,1.37-5.78,3.1a11.81,11.81,0,0,0-1.28,2.3l-.41.86-.22.45-.45-.23a10.7,10.7,0,0,0-3.56-.87A12.45,12.45,0,0,1,445,83c-2.53-1.18-3.8-3.41-5-5.56l-.08-.14a17.24,17.24,0,0,0-2.43-3.55c-2.61-2.72-7.1-5.28-11.24-4.87-7.46.75-13.21,6-13.72,10.32,0,.22-.05.48-.07.75-.23,2.33-.57,5.84-3.27,6.38a6,6,0,0,1-3.44-.58l-.71-.31a9.82,9.82,0,0,0-2.21-.8c-3-.57-4,1.36-5.19,3.8-.24.5-.5,1-.77,1.49-1.07,1.9-1.84,3.28-4.43,3.28h-.07a7.07,7.07,0,0,1-2.34-.52c-1.13-.4-2-.69-3.12.21A12.34,12.34,0,0,0,384.57,95.17Z" style="fill: rgb(38, 50, 56); transform-origin: 433.395px 82.0164px;" id="elz6kvihqxnnh" class="animable"></path><path d="M107.59,107.48H6.67L7,106.8a9.4,9.4,0,0,1,3-3.36c1.59-1.24,2.85-.79,4.07-.36a6.28,6.28,0,0,0,2,.46c2,0,2.57-.91,3.62-2.77.26-.48.51-1,.75-1.45,1.24-2.48,2.52-5,6.26-4.34a11.07,11.07,0,0,1,2.44.88l.69.3a5.08,5.08,0,0,0,2.86.51c2-.39,2.26-3.45,2.46-5.48,0-.28.05-.55.08-.78.56-4.76,6.56-10.39,14.61-11.19,4.48-.45,9.28,2.27,12.06,5.17a18.57,18.57,0,0,1,2.58,3.74l.08.14c1.2,2.11,2.33,4.11,4.58,5.15a11.46,11.46,0,0,0,3.44.81A12.51,12.51,0,0,1,76,95c.06-.14.12-.27.19-.41a12.58,12.58,0,0,1,1.39-2.48c1.53-1.95,4.19-3.79,6.69-3.48,4.41.54,7.69,4.31,8,7.49l0,.51c.09,1.13.26,3.23,1.15,3.44a1.93,1.93,0,0,0,1.34-.31l.36-.2A5.4,5.4,0,0,1,96.53,99c2.22-.51,3,1.33,3.64,3,.13.32.26.63.4.94.59,1.3.79,1.68,1.71,1.69a2.44,2.44,0,0,0,1-.27,2,2,0,0,1,2.47.28h0a6.15,6.15,0,0,1,1.67,2.27Zm-99.28-1h97.75a7.73,7.73,0,0,0-1-1.2c-.5-.47-.77-.35-1.38-.09a3.19,3.19,0,0,1-1.35.36c-1.55,0-2-1-2.63-2.27-.15-.32-.28-.65-.42-1-.7-1.72-1.17-2.67-2.48-2.37a4.71,4.71,0,0,0-1.11.5l-.39.21a3,3,0,0,1-2,.4c-1.6-.39-1.79-2.77-1.91-4.34l0-.49c-.27-2.74-3.26-6.12-7.13-6.6-2.12-.25-4.43,1.37-5.78,3.1A11.81,11.81,0,0,0,77.09,95l-.41.86-.22.45L76,96.09a10.7,10.7,0,0,0-3.56-.87,12.45,12.45,0,0,1-3.73-.89c-2.54-1.18-3.8-3.41-5-5.56l-.08-.14a17.64,17.64,0,0,0-2.43-3.55c-2.61-2.72-7.1-5.28-11.24-4.87-7.46.75-13.21,6-13.72,10.32,0,.22,0,.48-.07.75-.23,2.33-.57,5.84-3.27,6.38a6,6,0,0,1-3.44-.58l-.71-.31a9.82,9.82,0,0,0-2.21-.8c-3-.57-4,1.36-5.19,3.8-.25.5-.5,1-.77,1.49-1.07,1.9-1.84,3.28-4.43,3.28h-.07a7.07,7.07,0,0,1-2.34-.52c-1.13-.4-2-.69-3.12.21A12.34,12.34,0,0,0,8.31,106.48Z" style="fill: rgb(38, 50, 56); transform-origin: 57.13px 93.3255px;" id="el0oqaln55tfi" class="animable"></path></g><g id="freepik--trees-2--inject-2" class="animable" style="transform-origin: 248.021px 203.36px;"><path d="M43.09,215.34s-5.52,5.48-4.9,12.52,1.31,13.78,1.31,13.78l2.5-9.31s2,5.37,1.81,4.2-.19-7.41-.19-7.41,1.81,4.2,2.09,2.07c.16-1.21.52-3,.8-4.37.21-1,.38-1.76.38-1.76s1,4.62,1.93,3a22,22,0,0,0,1.6-5.3s.25,4.48,1.06,2.54a36.26,36.26,0,0,0,1.45-4.95s-.91,7.42-.13,10.22,1.46-2.4,1.46-2.4,3,12.67,3.36,10.43.31-10.24.31-10.24,2.86,7,2.75,5.05a29.37,29.37,0,0,0-1.6-6s2.65,5.62,2.51,3.45S60,222.4,60,222.4s5.83,9.89,6.4,7.62-1.5-6.52-1.5-6.52,1.19,5.65,2.08,4.25l.88-1.41s1,5.86,1.73,4.3l.68-1.56s1.91,5.55,2,4.63a7.35,7.35,0,0,1,.75-2.3s1.87,7.74,1.52,4.15-1.86-12.65-1.86-12.65,2.55,12.37,2.53,7.27-3.23-13.79-4.94-15.87-11.31-12.87-15.12-13.95-7.67,3.5-9,6.61S43.09,215.34,43.09,215.34Z" style="fill: rgb(38, 50, 56); transform-origin: 56.6758px 220.919px;" id="elf72qlab4xuh" class="animable"></path><path d="M57.68,306.25c.15,4.16,1.27,12.89,2.59,21.95h5.86c-2.13-13.28-4-28.29-3.3-37.62,1.39-19.84-1.17-59.72-7.39-85.39l-1.11,3.65a268.17,268.17,0,0,1,4.38,45.83C59.11,281.31,57.3,295.71,57.68,306.25Z" style="fill: rgb(38, 50, 56); transform-origin: 60.23px 266.695px;" id="eliad9506gn9o" class="animable"></path><path d="M54.15,201.72s-.38-.54.65-11.71,8.48-15.25,8.48-15.25l-1.69,4.71s4.69-4.56,4-3-4.6,5.14-4.6,5.14,5.86-2.65,4.66-.69a45.79,45.79,0,0,1-4,5.07s3.58-2,2.92-.43a25.16,25.16,0,0,1-2.4,3.93s3.44-2.9,3.37-1.4-3.84,8.32-3.84,8.32,4.82-3.69,3.37-1.39-6.09,9.23-7.84,9.49S54,205,54.15,201.72Z" style="fill: rgb(38, 50, 56); transform-origin: 59.9468px 189.703px;" id="elm9fw6e3jd9" class="animable"></path><path d="M58.08,208s.21-.62-4-11-12.51-12.16-12.51-12.16l3,4s-5.8-3-4.72-1.69,5.9,3.6,5.9,3.6-6.38-.85-4.67.69a46.62,46.62,0,0,0,5.31,3.68s-4-.9-2.91.43a24.75,24.75,0,0,0,3.43,3.07s-4.14-1.77-3.63-.36,6.07,6.85,6.07,6.85-5.67-2.14-3.62-.35,8.49,7.09,10.24,6.83S59.14,211.12,58.08,208Z" style="fill: rgb(38, 50, 56); transform-origin: 49.0802px 198.22px;" id="el2frn3pf0g1p" class="animable"></path><path d="M51.72,204.25s-4.9-4.46-10.18-5.1-19.46,8.52-19.46,8.52-6,12.18-4.76,10.8,5.6-6.49,5.6-6.49-.19,4.8.47,3.21A28.15,28.15,0,0,1,26,210.93s-.68,5.46.47,3.21a35.93,35.93,0,0,1,2.13-3.48c.71-1,1.27-1.79,1.27-1.79L33,207.52s-3.65,5.6-2,4.76,4.44-4.23,4.44-4.23-2.27,4.81-.32,3.92a11.74,11.74,0,0,0,3.7-3.22l-.32,3.91,2.66-2.17.09,2.66,1.74-2,1.83-2.1h2.08s-2.76,5.48-1.1,4.63,4.35-4.81,4.35-4.81l1,2.83s1.09-6.71,2.65-4.26S51.72,204.25,51.72,204.25Z" style="fill: rgb(38, 50, 56); transform-origin: 35.6699px 208.848px;" id="elpb8y8uapux" class="animable"></path><path d="M50,209.54s-6.62.3-10.8,3.58-7.75,19.79-7.75,19.79,4.33,12.88,4.27,11-.63-8.55-.63-8.55,3.26,3.53,2.6,1.94a29,29,0,0,1-1.14-4.89s3.38,4.35,2.61,1.93a36.24,36.24,0,0,1-1-4c-.23-1.23-.36-2.16-.36-2.16l1.22-3.13s1.38,6.54,2,4.77.16-6.13.16-6.13,1.79,5,2.54,3a11.8,11.8,0,0,0,.34-4.89l2.55,3,.34-3.42,2,1.81-.19-2.64-.19-2.78L50,216.32s1.91,5.83,2.49,4.06-.32-6.48-.32-6.48l2.72,1.29s-4-5.53-1.14-4.89S50,209.54,50,209.54Z" style="fill: rgb(38, 50, 56); transform-origin: 43.17px 226.819px;" id="elmv5atfx30r" class="animable"></path><path d="M55.44,205.19s3.4-5.68,8.26-7.81,21.1,2.54,21.1,2.54,9.3,9.92,7.67,9-7.23-4.59-7.23-4.59,1.56,4.54.47,3.21A28.54,28.54,0,0,0,82,204.18s2.23,5,.47,3.21a34.06,34.06,0,0,0-3-2.72c-1-.79-1.72-1.35-1.72-1.35l-3.34-.4s5.11,4.31,3.27,4-5.47-2.77-5.47-2.77,3.56,3.94,1.43,3.66a11.85,11.85,0,0,1-4.47-2l1.44,3.66-3.18-1.32L68,210.7l-2.24-1.41-2.36-1.49-2,.6s4.23,4.44,2.39,4.11-5.56-3.35-5.56-3.35l-.15,3s-3-6.11-3.77-3.32S55.44,205.19,55.44,205.19Z" style="fill: rgb(38, 50, 56); transform-origin: 73.394px 204.675px;" id="elh6qnbayyk1" class="animable"></path><path d="M58.62,209.75s6.42-1.61,11.37.32,13.12,16.71,13.12,16.71-.42,13.59-.91,11.76-1.86-8.36-1.86-8.36-2.1,4.32-1.94,2.61a28.27,28.27,0,0,0-.32-5s-2,5.14-1.93,2.6a34.34,34.34,0,0,0-.23-4.07c-.13-1.25-.27-2.17-.27-2.17l-2.08-2.65s.57,6.66-.5,5.13-1.92-5.82-1.92-5.82-.27,5.3-1.57,3.6a11.69,11.69,0,0,1-1.73-4.59l-1.58,3.61L65,220.24l-1.34,2.3L63,220l-.62-2.72-1.83-1s-.15,6.13-1.22,4.61-1.56-6.3-1.56-6.3l-2.23,2s2.21-6.43-.32-5S58.62,209.75,58.62,209.75Z" style="fill: rgb(38, 50, 56); transform-origin: 68.8509px 223.915px;" id="elacinmtkk7vc" class="animable"></path><path d="M429.32,215.34s-5.52,5.48-4.9,12.52,1.31,13.78,1.31,13.78l2.5-9.31s2,5.37,1.82,4.2-.2-7.41-.2-7.41,1.81,4.2,2.09,2.07c.16-1.21.52-3,.8-4.37.21-1,.38-1.76.38-1.76s1,4.62,1.93,3a22,22,0,0,0,1.6-5.3s.25,4.48,1.06,2.54a36.26,36.26,0,0,0,1.45-4.95s-.91,7.42-.13,10.22,1.47-2.4,1.47-2.4,3,12.67,3.35,10.43.31-10.24.31-10.24,2.86,7,2.75,5.05a29.37,29.37,0,0,0-1.6-6s2.65,5.62,2.51,3.45-1.62-8.5-1.62-8.5,5.83,9.89,6.4,7.62-1.5-6.52-1.5-6.52,1.19,5.65,2.08,4.25l.89-1.41s1,5.86,1.72,4.3l.68-1.56s1.91,5.55,2,4.63a7.63,7.63,0,0,1,.75-2.3s1.87,7.74,1.52,4.15-1.86-12.65-1.86-12.65,2.55,12.37,2.53,7.27-3.23-13.79-4.94-15.87-11.31-12.87-15.11-13.95-7.68,3.5-9,6.61S429.32,215.34,429.32,215.34Z" style="fill: rgb(38, 50, 56); transform-origin: 442.891px 220.899px;" id="elle0khklyclj" class="animable"></path><path d="M443.91,306.25c.15,4.16,1.27,12.89,2.59,21.95h5.86c-2.13-13.28-4-28.29-3.3-37.62,1.39-19.84-1.17-59.72-7.39-85.39l-1.11,3.65a268.17,268.17,0,0,1,4.38,45.83C445.34,281.31,443.53,295.71,443.91,306.25Z" style="fill: rgb(38, 50, 56); transform-origin: 446.46px 266.695px;" id="el6vl8hgw1epe" class="animable"></path><path d="M440.38,201.72s-.38-.54.65-11.71,8.48-15.25,8.48-15.25l-1.69,4.71s4.69-4.56,4-3-4.6,5.14-4.6,5.14,5.86-2.65,4.66-.69a45.79,45.79,0,0,1-4,5.07s3.58-2,2.92-.43a25.16,25.16,0,0,1-2.4,3.93s3.45-2.9,3.37-1.4-3.84,8.32-3.84,8.32,4.82-3.69,3.37-1.39-6.09,9.23-7.84,9.49S440.27,205,440.38,201.72Z" style="fill: rgb(38, 50, 56); transform-origin: 446.177px 189.703px;" id="elaigkdrz8v95" class="animable"></path><path d="M444.31,208s.21-.62-4-11-12.51-12.16-12.51-12.16l3,4s-5.8-3-4.71-1.69,5.89,3.6,5.89,3.6-6.38-.85-4.67.69a46.62,46.62,0,0,0,5.31,3.68s-4-.9-2.91.43a24.75,24.75,0,0,0,3.43,3.07s-4.14-1.77-3.63-.36,6.07,6.85,6.07,6.85-5.67-2.14-3.62-.35,8.49,7.09,10.24,6.83S445.37,211.12,444.31,208Z" style="fill: rgb(38, 50, 56); transform-origin: 435.314px 198.22px;" id="el4m0qy50fzhv" class="animable"></path><path d="M438,204.25s-4.9-4.46-10.17-5.1-19.47,8.52-19.47,8.52-6.05,12.18-4.76,10.8,5.6-6.49,5.6-6.49-.19,4.8.47,3.21a28.15,28.15,0,0,1,2.65-4.26s-.68,5.46.47,3.21a35.93,35.93,0,0,1,2.13-3.48c.71-1,1.27-1.79,1.27-1.79l3.08-1.35s-3.65,5.6-2,4.76,4.44-4.23,4.44-4.23-2.27,4.81-.32,3.92a11.74,11.74,0,0,0,3.7-3.22l-.32,3.91,2.66-2.17.09,2.66,1.75-2,1.82-2.1h2.08s-2.76,5.48-1.1,4.63,4.35-4.81,4.35-4.81l1,2.83s1.09-6.71,2.65-4.26S438,204.25,438,204.25Z" style="fill: rgb(38, 50, 56); transform-origin: 421.939px 208.848px;" id="elodo82pcxef" class="animable"></path><path d="M436.22,209.54s-6.62.3-10.8,3.58-7.75,19.79-7.75,19.79,4.33,12.88,4.27,11-.63-8.55-.63-8.55,3.26,3.53,2.6,1.94a28.6,28.6,0,0,1-1.13-4.89s3.37,4.35,2.6,1.93a34,34,0,0,1-.95-4c-.24-1.23-.37-2.16-.37-2.16l1.22-3.13s1.38,6.54,2,4.77.15-6.13.15-6.13,1.79,5,2.54,3a11.8,11.8,0,0,0,.34-4.89l2.55,3,.34-3.42,1.95,1.81-.18-2.64-.2-2.78,1.47-1.48s1.91,5.83,2.49,4.06-.32-6.48-.32-6.48l2.72,1.29s-4-5.53-1.14-4.89S436.22,209.54,436.22,209.54Z" style="fill: rgb(38, 50, 56); transform-origin: 429.4px 226.819px;" id="el69isz7vcbiw" class="animable"></path><path d="M441.67,205.19s3.4-5.68,8.26-7.81,21.1,2.54,21.1,2.54,9.3,9.92,7.67,9-7.23-4.59-7.23-4.59,1.56,4.54.47,3.21a28.54,28.54,0,0,0-3.76-3.32s2.23,5,.47,3.21a35.38,35.38,0,0,0-3-2.72c-1-.79-1.73-1.35-1.73-1.35l-3.34-.4s5.11,4.31,3.27,4-5.47-2.77-5.47-2.77,3.56,3.94,1.43,3.66a11.85,11.85,0,0,1-4.47-2l1.44,3.66-3.18-1.32.68,2.58L452,209.29l-2.35-1.49-2,.6s4.23,4.44,2.39,4.11-5.56-3.35-5.56-3.35l-.15,3s-3-6.11-3.77-3.32S441.67,205.19,441.67,205.19Z" style="fill: rgb(38, 50, 56); transform-origin: 459.633px 204.675px;" id="elwgx8xghai4s" class="animable"></path><path d="M444.85,209.75s6.42-1.61,11.37.32,13.13,16.71,13.13,16.71-.43,13.59-.91,11.76-1.87-8.36-1.87-8.36-2.1,4.32-1.94,2.61a28.61,28.61,0,0,0-.31-5s-2,5.14-1.94,2.6a34.34,34.34,0,0,0-.23-4.07c-.13-1.25-.27-2.17-.27-2.17l-2.08-2.65s.57,6.66-.5,5.13-1.92-5.82-1.92-5.82-.26,5.3-1.57,3.6a11.69,11.69,0,0,1-1.73-4.59l-1.58,3.61-1.31-3.18-1.34,2.3-.59-2.58-.62-2.72-1.83-1s-.15,6.13-1.22,4.61-1.56-6.3-1.56-6.3l-2.23,2s2.21-6.43-.32-5S444.85,209.75,444.85,209.75Z" style="fill: rgb(38, 50, 56); transform-origin: 455.1px 223.915px;" id="elijb9vz5esh8" class="animable"></path><path d="M247.64,112.94s-22.49-6.48-29.24-3.53l-.32.16c.93-1.37,1.72-2.58,2.23-3.38,2-3.19-4.67,1.92-4.67,1.92s5.21-9.44,5.32-11.52-4.67,1.93-4.67,1.93a34.44,34.44,0,0,0,3.32-5.44c.92-2.2-4,.59-4,.59a64.3,64.3,0,0,0,5.58-7c1.66-2.73-6.47,1-6.47,1s5.47-4.94,6.38-7.14-5.59,4.13-5.59,4.13l2.34-6.54S207.5,83.71,206.06,99.2c-.41,4.52-.67,7.78-.81,10.14l-.2-.49C199.21,94.43,187.7,92,187.7,92l4.13,5.58s-8.05-4.18-6.54-2.34,8.17,5,8.17,5-8.85-1.17-6.47,1a64.3,64.3,0,0,0,7.36,5.1s-5.55-1.24-4,.6a34.25,34.25,0,0,0,4.76,4.25s-5.73-2.45-5-.49a9.26,9.26,0,0,0,1.48,2.14,18.1,18.1,0,0,0-3.83-.91c-7.31-.89-27,11.81-27,11.81s-8.38,16.88-6.6,15,7.76-9,7.76-9-.26,6.65.66,4.45a39,39,0,0,1,3.67-5.91s-.95,7.57.65,4.44a49.37,49.37,0,0,1,3-4.82c1-1.43,1.75-2.48,1.75-2.48l4.26-1.86s-5,7.76-2.74,6.6,6.16-5.87,6.16-5.87-3.15,6.66-.44,5.44,5.12-4.48,5.12-4.48l-.44,5.44,3.69-3,.06,1.87a17.44,17.44,0,0,0-2.8,1.78c-5.8,4.54-10.75,27.42-10.75,27.42s6,17.86,5.91,15.25-.86-11.84-.86-11.84,4.51,4.88,3.61,2.68a39.16,39.16,0,0,1-1.58-6.78,26.2,26.2,0,0,0,3.18,3.5c.51,5.38.92,9.29.92,9.29l3.47-12.89s2.74,7.44,2.5,5.82-.27-10.28-.27-10.28,2.51,5.82,2.9,2.87c.22-1.67.72-4.19,1.11-6.05.3-1.41.53-2.45.53-2.45s1.35,6.41,2.67,4.15,2.22-7.35,2.22-7.35.35,6.22,1.46,3.53a49.26,49.26,0,0,0,2-6.86s-1.26,10.28-.18,14.16,2-3.33,2-3.33,4.1,17.57,4.65,14.46a32.63,32.63,0,0,0,.31-3.6c.61,7.78,1.07,16.5,1.21,25.89.54,36.92-2,56.88-1.44,71.49.46,13,7.81,58.13,9.47,68.18h9.24c-1.44-6.77-13.39-64.06-11.57-89.9,1.3-18.58.1-49.84-3.47-79.13.33.48.53.55.49-.12a24,24,0,0,0-1.16-5.13l-.18-1.34c1.07,2.1,2.73,5.05,2.6,3-.19-3-2.24-11.79-2.24-11.79s8.07,13.7,8.87,10.56a7.42,7.42,0,0,0-.06-3.1c.3.33.59.38.86-.05l1.23-1.95s1.45,8.12,2.39,6l.94-2.16s2.65,7.69,2.72,6.42a10.28,10.28,0,0,1,1-3.19s2.59,10.73,2.11,5.75c-.27-2.83-1.07-8.1-1.71-12.13a.21.21,0,0,0,.32,0c1,4.32,2.33,9,2.31,4.71a42.05,42.05,0,0,0-2.1-11.17c0-.53-.07-.87-.07-.87l2.88,3.67s.19,1.28.37,3a50.37,50.37,0,0,1,.33,5.64c-.07,3.52,2.67-3.61,2.67-3.61a39.63,39.63,0,0,1,.45,6.95c-.24,2.37,2.68-3.61,2.68-3.61s1.92,9.06,2.59,11.59,1.26-16.31,1.26-16.31S234,129.69,227.11,127a18.5,18.5,0,0,0-3.2-.89l-.48-1.81,4.4,1.83-2-5.08s3.24,2.41,6.19,2.8-2-5.07-2-5.07,5,3.39,7.59,3.84-4.53-5.53-4.53-5.53l4.62.56s1,.77,2.39,1.87a48.25,48.25,0,0,1,4.22,3.76c2.44,2.53-.65-4.44-.65-4.44a39.26,39.26,0,0,1,5.22,4.59c1.51,1.85-.66-4.44-.66-4.44s7.77,5,10,6.37S247.64,112.94,247.64,112.94Zm-55.4,12.66h.53l-.72,2c-.7.21-1.42.44-2.14.71Zm-9.19,29.56c-.33-1.71-.52-3-.52-3l.48-1.23c0,.24,0,.48,0,.72.18,2.09.37,4.14.55,6.1C183.38,156.86,183.2,156,183.05,155.16ZM221,125.76h0Z" style="fill: rgb(38, 50, 56); transform-origin: 206.196px 203.36px;" id="elp59rmnseay" class="animable"></path><path d="M442.56,136s-22.49-6.48-29.24-3.52c-.11,0-.21.1-.32.15.93-1.37,1.72-2.58,2.23-3.38,2-3.19-4.67,1.92-4.67,1.92s5.21-9.44,5.32-11.52-4.67,1.93-4.67,1.93a34.44,34.44,0,0,0,3.32-5.44c.92-2.2-4,.59-4,.59a63.4,63.4,0,0,0,5.57-7c1.67-2.73-6.46.95-6.46.95s5.46-4.94,6.38-7.14-5.59,4.13-5.59,4.13l2.34-6.54S402.42,106.81,401,122.3c-.41,4.52-.67,7.78-.81,10.14L400,132c-5.84-14.42-17.35-16.85-17.35-16.85l4.13,5.58s-8.05-4.18-6.54-2.34,8.17,5,8.17,5-8.85-1.17-6.47,1a64.87,64.87,0,0,0,7.36,5.11s-5.55-1.25-4,.59a34.25,34.25,0,0,0,4.76,4.25s-5.73-2.45-5-.49a9.26,9.26,0,0,0,1.48,2.14,18.1,18.1,0,0,0-3.83-.91c-7.31-.88-27,11.81-27,11.81s-8.38,16.88-6.6,15,7.76-9,7.76-9-.26,6.65.66,4.45a39,39,0,0,1,3.67-5.91s-.95,7.57.65,4.45a48.36,48.36,0,0,1,3-4.83c1-1.43,1.75-2.48,1.75-2.48l4.26-1.86s-5.05,7.76-2.74,6.6,6.16-5.87,6.16-5.87-3.15,6.66-.44,5.44,5.12-4.48,5.12-4.48l-.44,5.44,3.69-3,.06,1.87a17.44,17.44,0,0,0-2.8,1.78c-5.8,4.54-10.75,27.42-10.75,27.42s6,17.86,5.91,15.25-.86-11.84-.86-11.84,4.51,4.88,3.61,2.68a39.16,39.16,0,0,1-1.58-6.78,26.2,26.2,0,0,0,3.18,3.5c.51,5.39.92,9.29.92,9.29L383.24,181s2.75,7.44,2.51,5.82-.27-10.28-.27-10.28,2.51,5.82,2.9,2.87c.22-1.67.72-4.19,1.11-6,.29-1.41.53-2.45.53-2.45s1.35,6.41,2.67,4.15,2.22-7.34,2.22-7.34.34,6.21,1.46,3.52a49.26,49.26,0,0,0,2-6.86s-1.26,10.28-.18,14.16,2-3.33,2-3.33,4.1,17.57,4.65,14.46a32.63,32.63,0,0,0,.31-3.6c.61,7.78,1.07,16.5,1.21,25.89.54,36.92-2,56.88-1.44,71.49.46,13,9.6,35,11.26,45.08h9.24c-1.44-6.77-15.18-41-13.36-66.8,1.3-18.58.1-49.84-3.47-79.13.33.48.53.55.49-.12a24,24,0,0,0-1.16-5.13l-.18-1.34c1.07,2.1,2.73,5.05,2.6,3-.19-3-2.24-11.79-2.24-11.79s8.07,13.7,8.87,10.56a7.42,7.42,0,0,0-.06-3.1c.3.33.59.38.86,0l1.23-2s1.45,8.12,2.39,6l.94-2.16s2.65,7.69,2.71,6.42a10.48,10.48,0,0,1,1.05-3.19s2.59,10.73,2.11,5.75c-.27-2.83-1.07-8.1-1.71-12.13a.21.21,0,0,0,.32,0c1,4.32,2.33,9,2.31,4.71a42.46,42.46,0,0,0-2.1-11.17c0-.53-.07-.87-.07-.87l2.88,3.67s.19,1.28.37,3a50.37,50.37,0,0,1,.33,5.64c-.07,3.52,2.67-3.61,2.67-3.61a39.63,39.63,0,0,1,.45,6.95c-.24,2.37,2.67-3.61,2.67-3.61s1.93,9.06,2.59,11.59,1.27-16.31,1.27-16.31-11.34-20.48-18.2-23.16a18.5,18.5,0,0,0-3.2-.89l-.48-1.81,4.4,1.83-2-5.08S424,146.57,427,147s-2-5.08-2-5.08,5,3.39,7.59,3.84S428,140.2,428,140.2l4.62.56s1,.77,2.39,1.87a49.94,49.94,0,0,1,4.22,3.76c2.44,2.53-.65-4.44-.65-4.44a39.26,39.26,0,0,1,5.22,4.59c1.51,1.85-.66-4.44-.66-4.44s7.76,5.05,10,6.37S442.56,136,442.56,136Zm-55.4,12.66h.53c-.24.65-.49,1.31-.72,2-.7.21-1.42.44-2.14.71ZM378,178.26c-.32-1.71-.51-3-.51-3l.48-1.23c0,.24,0,.48,0,.72.18,2.09.37,4.14.55,6.1C378.3,180,378.12,179.06,378,178.26Zm38-29.4h0Z" style="fill: rgb(38, 50, 56); transform-origin: 401.132px 214.855px;" id="elzq7afuvgiw9" class="animable"></path><path d="M154.82,136s-22.49-6.48-29.24-3.52c-.11,0-.21.1-.32.15.93-1.37,1.72-2.58,2.23-3.38,2-3.19-4.67,1.92-4.67,1.92s5.21-9.44,5.32-11.52-4.67,1.93-4.67,1.93a35,35,0,0,0,3.33-5.44c.91-2.2-4,.59-4,.59a64.3,64.3,0,0,0,5.58-7c1.66-2.73-6.47.95-6.47.95s5.47-4.94,6.38-7.14-5.58,4.13-5.58,4.13l2.34-6.54s-10.32,5.65-11.75,21.14c-.42,4.52-.67,7.78-.82,10.14l-.2-.49c-5.84-14.42-17.35-16.85-17.35-16.85L99,120.68s-8.05-4.18-6.54-2.34,8.17,5,8.17,5-8.84-1.17-6.47,1a64.87,64.87,0,0,0,7.36,5.11s-5.55-1.25-4,.59a34.25,34.25,0,0,0,4.76,4.25s-5.73-2.45-5-.49a9.6,9.6,0,0,0,1.48,2.14,18,18,0,0,0-3.83-.91c-7.31-.88-27,11.81-27,11.81s-8.38,16.88-6.6,15,7.76-9,7.76-9-.26,6.65.66,4.45a39,39,0,0,1,3.67-5.91s-.95,7.57.65,4.45a50.29,50.29,0,0,1,3-4.83c1-1.43,1.75-2.48,1.75-2.48L83,146.58s-5.05,7.76-2.75,6.6,6.16-5.87,6.16-5.87S83.27,154,86,152.75s5.12-4.48,5.12-4.48l-.44,5.44,3.69-3,.07,1.87a17.09,17.09,0,0,0-2.81,1.78c-5.8,4.54-10.74,27.42-10.74,27.42s6,17.86,5.91,15.25-.87-11.84-.87-11.84,4.52,4.88,3.61,2.68a39.16,39.16,0,0,1-1.58-6.78,26.2,26.2,0,0,0,3.18,3.5c.52,5.39.92,9.29.92,9.29L95.51,181s2.75,7.44,2.51,5.82-.28-10.28-.28-10.28,2.51,5.82,2.9,2.87c.22-1.67.72-4.19,1.11-6,.3-1.41.53-2.45.53-2.45s1.36,6.41,2.68,4.15,2.22-7.34,2.22-7.34.34,6.21,1.46,3.52a50.14,50.14,0,0,0,2-6.86s-1.26,10.28-.18,14.16,2-3.33,2-3.33,4.1,17.57,4.66,14.46a33.1,33.1,0,0,0,.3-3.6c.61,7.78,1.07,16.5,1.21,25.89.54,36.92-2,56.88-1.44,71.49.46,13,9.6,35,11.26,45.08h9.24c-1.44-6.77-15.18-41-13.36-66.8,1.31-18.58.1-49.84-3.47-79.13.33.48.53.55.5-.12a24.73,24.73,0,0,0-1.17-5.13l-.18-1.34c1.07,2.1,2.73,5.05,2.6,3-.19-3-2.24-11.79-2.24-11.79s8.08,13.7,8.87,10.56a7.4,7.4,0,0,0-.05-3.1c.29.33.58.38.85,0l1.23-2s1.45,8.12,2.39,6l1-2.16s2.64,7.69,2.71,6.42a10.28,10.28,0,0,1,1-3.19s2.59,10.73,2.11,5.75c-.27-2.83-1.07-8.1-1.71-12.13a.21.21,0,0,0,.32,0c1,4.32,2.33,9,2.31,4.71a42.05,42.05,0,0,0-2.1-11.17c0-.53-.07-.87-.07-.87l2.88,3.67s.19,1.28.37,3a48.1,48.1,0,0,1,.33,5.64c-.07,3.52,2.68-3.61,2.68-3.61a40,40,0,0,1,.44,6.95c-.23,2.37,2.68-3.61,2.68-3.61s1.92,9.06,2.59,11.59,1.26-16.31,1.26-16.31-11.34-20.48-18.2-23.16a18.5,18.5,0,0,0-3.2-.89l-.48-1.81,4.4,1.83-2-5.08s3.24,2.41,6.19,2.81-2-5.08-2-5.08,5.05,3.39,7.59,3.84-4.53-5.53-4.53-5.53l4.62.56s1.05.77,2.39,1.87a48.43,48.43,0,0,1,4.22,3.76c2.44,2.53-.65-4.44-.65-4.44a39.26,39.26,0,0,1,5.22,4.59c1.51,1.85-.66-4.44-.66-4.44s7.77,5.05,10,6.37S154.82,136,154.82,136ZM99.42,148.7H100l-.72,2c-.7.21-1.42.44-2.14.71Zm-9.19,29.56c-.33-1.71-.51-3-.51-3l.47-1.23c0,.24,0,.48,0,.72.18,2.09.37,4.14.55,6.1C90.57,180,90.38,179.06,90.23,178.26Zm38-29.4h0Z" style="fill: rgb(38, 50, 56); transform-origin: 113.357px 214.855px;" id="elzjf0hxjcvlc" class="animable"></path><path d="M282,112.94s22.49-6.48,29.24-3.53l.32.16c-.93-1.37-1.72-2.58-2.23-3.38-2-3.19,4.67,1.92,4.67,1.92s-5.21-9.44-5.32-11.52,4.67,1.93,4.67,1.93A34.44,34.44,0,0,1,310,93.08c-.92-2.2,4,.59,4,.59a63.4,63.4,0,0,1-5.57-7c-1.67-2.73,6.46,1,6.46,1s-5.47-4.94-6.38-7.14,5.59,4.13,5.59,4.13l-2.34-6.54s10.31,5.65,11.75,21.14c.41,4.52.67,7.78.81,10.14l.2-.49C330.42,94.43,341.93,92,341.93,92l-4.13,5.58s8.05-4.18,6.54-2.34-8.17,5-8.17,5,8.85-1.17,6.47,1a64.3,64.3,0,0,1-7.36,5.1s5.55-1.24,4,.6a34.25,34.25,0,0,1-4.76,4.25s5.73-2.45,5-.49a9.26,9.26,0,0,1-1.48,2.14,18.1,18.1,0,0,1,3.83-.91c7.31-.89,27,11.81,27,11.81s8.38,16.88,6.6,15-7.76-9-7.76-9,.26,6.65-.66,4.45a39,39,0,0,0-3.67-5.91s.95,7.57-.65,4.44a49.37,49.37,0,0,0-3-4.82c-1-1.43-1.75-2.48-1.75-2.48l-4.26-1.86s5,7.76,2.74,6.6-6.16-5.87-6.16-5.87,3.15,6.66.44,5.44-5.12-4.48-5.12-4.48l.44,5.44-3.69-3-.06,1.87a17.44,17.44,0,0,1,2.8,1.78C351,135.78,356,158.66,356,158.66s-6,17.86-5.91,15.25.86-11.84.86-11.84-4.51,4.88-3.61,2.68a39.16,39.16,0,0,0,1.58-6.78,26.2,26.2,0,0,1-3.18,3.5c-.51,5.38-.92,9.29-.92,9.29l-3.47-12.89s-2.74,7.44-2.5,5.82.27-10.28.27-10.28-2.51,5.82-2.9,2.87c-.22-1.67-.72-4.19-1.11-6.05-.3-1.41-.53-2.45-.53-2.45s-1.35,6.41-2.67,4.15-2.22-7.35-2.22-7.35-.34,6.22-1.46,3.53a49.26,49.26,0,0,1-2-6.86s1.26,10.28.18,14.16-2-3.33-2-3.33-4.1,17.57-4.65,14.46a32.63,32.63,0,0,1-.31-3.6c-.61,7.78-1.07,16.5-1.21,25.89-.54,36.92,2,56.88,1.44,71.49-.46,13-7.81,58.13-9.47,68.18h-9.24c1.44-6.77,13.39-64.06,11.57-89.9-1.3-18.58-.1-49.84,3.47-79.13-.33.48-.53.55-.49-.12a24,24,0,0,1,1.16-5.13l.18-1.34c-1.07,2.1-2.73,5.05-2.6,3,.19-3,2.24-11.79,2.24-11.79s-8.07,13.7-8.87,10.56a7.42,7.42,0,0,1,.06-3.1c-.3.33-.59.38-.86-.05l-1.23-1.95s-1.45,8.12-2.39,6l-.94-2.16s-2.65,7.69-2.72,6.42a10.28,10.28,0,0,0-1-3.19s-2.59,10.73-2.11,5.75c.27-2.83,1.07-8.1,1.71-12.13a.21.21,0,0,1-.32,0c-1,4.32-2.33,9-2.31,4.71a42.05,42.05,0,0,1,2.1-11.17c0-.53.07-.87.07-.87l-2.88,3.67s-.19,1.28-.37,3a50.37,50.37,0,0,0-.33,5.64c.07,3.52-2.67-3.61-2.67-3.61a39.63,39.63,0,0,0-.45,6.95c.24,2.37-2.68-3.61-2.68-3.61s-1.92,9.06-2.59,11.59-1.26-16.31-1.26-16.31,11.34-20.48,18.2-23.16a18.5,18.5,0,0,1,3.2-.89l.48-1.81-4.4,1.83,2-5.08s-3.24,2.41-6.19,2.8,2-5.07,2-5.07-5,3.39-7.59,3.84,4.53-5.53,4.53-5.53l-4.62.56s-1,.77-2.39,1.87a48.25,48.25,0,0,0-4.22,3.76c-2.44,2.53.65-4.44.65-4.44a39.26,39.26,0,0,0-5.22,4.59c-1.51,1.85.66-4.44.66-4.44s-7.77,5-10,6.37S282,112.94,282,112.94Zm55.4,12.66h-.53l.72,2c.7.21,1.42.44,2.14.71Zm9.19,29.56c.33-1.71.52-3,.52-3l-.48-1.23c0,.24,0,.48,0,.72-.18,2.09-.37,4.14-.55,6.1C346.25,156.86,346.43,156,346.58,155.16Zm-37.95-29.4h0Z" style="fill: rgb(38, 50, 56); transform-origin: 323.503px 203.31px;" id="el4h2fgk31ore" class="animable"></path></g><g id="freepik--House--inject-2" class="animable" style="transform-origin: 262.865px 233.55px;"><rect x="214.23" y="195.69" width="186.77" height="132.49" style="fill: rgb(38, 50, 56); transform-origin: 307.615px 261.935px;" id="elecff6k7oaql" class="animable"></rect><path d="M401.5,328.68H213.73V195.19H401.5Zm-186.77-1H400.5V196.19H214.73Z" style="fill: rgb(38, 50, 56); transform-origin: 307.615px 261.935px;" id="elmc8gyci4mur" class="animable"></path><rect x="134.2" y="255.58" width="202.22" height="72.93" style="fill: rgb(209, 209, 209); transform-origin: 235.31px 292.045px;" id="el29i5pw1puxg" class="animable"></rect><path d="M336.92,329H133.7V255.08H336.92ZM134.7,328H335.92V256.08H134.7Z" style="fill: rgb(38, 50, 56); transform-origin: 235.31px 292.04px;" id="eloq83ajbihwl" class="animable"></path><rect x="134.2" y="255.58" width="202.22" height="39.3" style="fill: rgb(38, 50, 56); transform-origin: 235.31px 275.23px;" id="elhnuf6n8iopl" class="animable"></rect><path d="M336.92,295.38H133.7v-40.3H336.92Zm-202.22-1H335.92v-38.3H134.7Z" style="fill: rgb(38, 50, 56); transform-origin: 235.31px 275.23px;" id="eleiyzdtsenlh" class="animable"></path><rect x="213.82" y="241.03" width="205.74" height="25.2" style="fill: rgb(209, 209, 209); transform-origin: 316.69px 253.63px;" id="el0vlfltyacn6h" class="animable"></rect><path d="M420.05,266.73H213.32v-26.2H420.05Zm-205.73-1H419.05v-24.2H214.32Z" style="fill: rgb(38, 50, 56); transform-origin: 316.685px 253.63px;" id="elnb2in9d52ui" class="animable"></path><rect x="412.9" y="228.72" width="7.62" height="99.79" style="fill: rgb(255, 255, 255); transform-origin: 416.71px 278.615px;" id="elfkezqj3s0sk" class="animable"></rect><path d="M421,329H412.4V228.22H421Zm-7.62-1H420V229.22H413.4Z" style="fill: rgb(38, 50, 56); transform-origin: 416.7px 278.61px;" id="elcf79swom6f6" class="animable"></path><rect x="199.54" y="195.69" width="186.77" height="47.37" style="fill: rgb(255, 255, 255); transform-origin: 292.925px 219.375px;" id="elgdm1wlh7qmp" class="animable"></rect><path d="M386.81,243.56H199V195.19H386.81Zm-186.77-1H385.81V196.19H200Z" style="fill: rgb(38, 50, 56); transform-origin: 292.905px 219.375px;" id="elb8p4u4hqmuh" class="animable"></path><rect x="335.72" y="201.03" width="43.95" height="42.03" style="fill: rgb(255, 255, 255); transform-origin: 357.695px 222.045px;" id="elgmm7ocejlff" class="animable"></rect><path d="M380.17,243.56H335.22v-43h44.95Zm-43.95-1h42.95v-41H336.22Z" style="fill: rgb(38, 50, 56); transform-origin: 357.695px 222.06px;" id="elhrrp0w8r207" class="animable"></path><g id="el9sx6qismy7e"><rect x="347.59" y="216.13" width="18.4" height="1" style="fill: rgb(38, 50, 56); transform-origin: 356.79px 216.63px; transform: rotate(-45deg);" class="animable"></rect></g><g id="elwi6cup9zx5o"><rect x="341.22" y="222.51" width="6.13" height="1" style="fill: rgb(38, 50, 56); transform-origin: 344.285px 223.01px; transform: rotate(-45deg);" class="animable"></rect></g><rect x="345.63" y="228.72" width="7.62" height="99.79" style="fill: rgb(209, 209, 209); transform-origin: 349.44px 278.615px;" id="el9h7w59q6gia" class="animable"></rect><path d="M353.75,329h-8.62V228.22h8.62Zm-7.62-1h6.62V229.22h-6.62Z" style="fill: rgb(38, 50, 56); transform-origin: 349.44px 278.61px;" id="elve4btpl6h8e" class="animable"></path><rect x="188.72" y="241.03" width="205.74" height="25.2" style="fill: rgb(255, 255, 255); transform-origin: 291.59px 253.63px;" id="elz7j7vbn8cg9" class="animable"></rect><path d="M395,266.73H188.22v-26.2H395Zm-205.73-1H394v-24.2H189.22Z" style="fill: rgb(38, 50, 56); transform-origin: 291.61px 253.63px;" id="elilm84hhxef" class="animable"></path><rect x="392.69" y="228.72" width="7.62" height="99.79" style="fill: rgb(255, 255, 255); transform-origin: 396.5px 278.615px;" id="elra4jy65bh2d" class="animable"></rect><path d="M400.81,329h-8.62V228.22h8.62Zm-7.62-1h6.62V229.22h-6.62Z" style="fill: rgb(38, 50, 56); transform-origin: 396.5px 278.61px;" id="elzn81vcho9la" class="animable"></path><polygon points="291.84 138.65 204.11 195.6 402.84 195.6 291.84 138.65" style="fill: rgb(146, 227, 169); transform-origin: 303.475px 167.125px;" id="elbcie0ovemdk" class="animable"></polygon><path d="M404.91,196.1H202.42l89.39-58Zm-199.11-1h195l-108.9-55.87Z" style="fill: rgb(38, 50, 56); transform-origin: 303.665px 167.1px;" id="el6xgmrncnq76" class="animable"></path><polygon points="291.84 138.65 192.48 195.6 391.21 195.6 291.84 138.65" style="fill: rgb(146, 227, 169); transform-origin: 291.845px 167.125px;" id="el28puo9e6xu4" class="animable"></polygon><path d="M393.08,196.1H190.6l101.24-58,.25.14Zm-198.72-1h195l-97.49-55.88Z" style="fill: rgb(38, 50, 56); transform-origin: 291.84px 167.1px;" id="elxuvx1j0ru7" class="animable"></path><polygon points="228.54 138.65 137.75 195.6 336.47 195.6 228.54 138.65" style="fill: rgb(146, 227, 169); transform-origin: 237.11px 167.125px;" id="elo8akirxzq3" class="animable"></polygon><path d="M338.49,196.1H136l92.51-58,.25.14Zm-199-1h195l-105.9-55.87Z" style="fill: rgb(38, 50, 56); transform-origin: 237.245px 167.1px;" id="elj9k49jzlk2" class="animable"></path><rect x="146.72" y="195.69" width="186.77" height="47.37" style="fill: rgb(38, 50, 56); transform-origin: 240.105px 219.375px;" id="el7tucaxf22ql" class="animable"></rect><path d="M334,243.56H146.22V195.19H334Zm-186.77-1H333V196.19H147.22Z" style="fill: rgb(38, 50, 56); transform-origin: 240.11px 219.375px;" id="elnrmdi4tnxi" class="animable"></path><rect x="134.48" y="195.69" width="186.77" height="47.37" style="fill: rgb(255, 255, 255); transform-origin: 227.865px 219.375px;" id="eleqpnclnf0ze" class="animable"></rect><path d="M321.75,243.56H134V195.19H321.75Zm-186.77-1H320.75V196.19H135Z" style="fill: rgb(38, 50, 56); transform-origin: 227.875px 219.375px;" id="elkktuyfuf9a" class="animable"></path><rect x="134.48" y="195.69" width="186.77" height="3.87" style="fill: rgb(38, 50, 56); transform-origin: 227.865px 197.625px;" id="el1mm2gq6426d" class="animable"></rect><path d="M321.75,200.06H134v-4.87H321.75Zm-186.77-1H320.75v-2.87H135Z" style="fill: rgb(38, 50, 56); transform-origin: 227.875px 197.625px;" id="el83shufii5m9" class="animable"></path><rect x="143.97" y="204.33" width="76.31" height="38.73" style="fill: rgb(38, 50, 56); transform-origin: 182.125px 223.695px;" id="elg9x4i9hn107" class="animable"></rect><path d="M220.78,243.56H143.47V203.83h77.31Zm-76.31-1h75.31V204.83H144.47Z" style="fill: rgb(38, 50, 56); transform-origin: 182.125px 223.695px;" id="elvc75mwtnnag" class="animable"></path><rect x="147.51" y="208.2" width="69.22" height="34.86" style="fill: rgb(255, 255, 255); transform-origin: 182.12px 225.63px;" id="els4o4j092tt9" class="animable"></rect><path d="M217.23,243.56H147V207.7h70.22Zm-69.22-1h68.22V208.7H148Z" style="fill: rgb(38, 50, 56); transform-origin: 182.115px 225.63px;" id="elvpitl8fgjj" class="animable"></path><g id="els4p9vdhyuao"><rect x="157.8" y="222.25" width="18.4" height="1" style="fill: rgb(38, 50, 56); transform-origin: 167px 222.75px; transform: rotate(-45deg);" class="animable"></rect></g><g id="el23dr0ognczh"><rect x="151.43" y="228.63" width="6.13" height="1" style="fill: rgb(38, 50, 56); transform-origin: 154.495px 229.13px; transform: rotate(-45deg);" class="animable"></rect></g><g id="el6huyf6c5mqq"><rect x="195.55" y="222.25" width="18.4" height="1" style="fill: rgb(38, 50, 56); transform-origin: 204.75px 222.75px; transform: rotate(-45deg);" class="animable"></rect></g><g id="eldtbheb8qe4"><rect x="189.19" y="228.63" width="6.13" height="1" style="fill: rgb(38, 50, 56); transform-origin: 192.255px 229.13px; transform: rotate(-45deg);" class="animable"></rect></g><rect x="179.84" y="208.2" width="4.56" height="34.86" style="fill: rgb(38, 50, 56); transform-origin: 182.12px 225.63px;" id="eljtlk1dqofw" class="animable"></rect><path d="M184.9,243.56h-5.56V207.7h5.56Zm-4.56-1h3.56V208.7h-3.56Z" style="fill: rgb(38, 50, 56); transform-origin: 182.12px 225.63px;" id="elhrtsrmkmz4c" class="animable"></path><rect x="143.97" y="273.07" width="76.31" height="55.44" style="fill: rgb(38, 50, 56); transform-origin: 182.125px 300.79px;" id="elpp914a0n35e" class="animable"></rect><path d="M220.78,329H143.47V272.57h77.31Zm-76.31-1h75.31V273.57H144.47Z" style="fill: rgb(38, 50, 56); transform-origin: 182.125px 300.785px;" id="eldbntup550hh" class="animable"></path><rect x="147.51" y="276.94" width="69.22" height="51.57" style="fill: rgb(209, 209, 209); transform-origin: 182.12px 302.725px;" id="elpnk3v5ccjtf" class="animable"></rect><path d="M217.23,329H147V276.44h70.22ZM148,328h68.22V277.44H148Z" style="fill: rgb(38, 50, 56); transform-origin: 182.115px 302.72px;" id="elx25k32p0sj9" class="animable"></path><g id="el9acvrjc507"><rect x="158.69" y="296.86" width="18.4" height="1" style="fill: rgb(38, 50, 56); transform-origin: 167.89px 297.36px; transform: rotate(-45deg);" class="animable"></rect></g><g id="eljqrlrzdkztn"><rect x="152.33" y="303.24" width="6.13" height="1" style="fill: rgb(38, 50, 56); transform-origin: 155.395px 303.74px; transform: rotate(-45deg);" class="animable"></rect></g><g id="elseaa3y71qqp"><rect x="195.94" y="296.86" width="18.4" height="1" style="fill: rgb(38, 50, 56); transform-origin: 205.14px 297.36px; transform: rotate(-45deg);" class="animable"></rect></g><g id="elzjkf4hcvon"><rect x="189.57" y="303.24" width="6.13" height="1" style="fill: rgb(38, 50, 56); transform-origin: 192.635px 303.74px; transform: rotate(-45deg);" class="animable"></rect></g><rect x="179.84" y="276.94" width="4.56" height="51.57" style="fill: rgb(38, 50, 56); transform-origin: 182.12px 302.725px;" id="elcamho9en2yl" class="animable"></rect><path d="M184.9,329h-5.56V276.44h5.56Zm-4.56-1h3.56V277.44h-3.56Z" style="fill: rgb(38, 50, 56); transform-origin: 182.12px 302.72px;" id="eltbfgg4ct1lc" class="animable"></path><rect x="234.32" y="273.07" width="76.31" height="55.44" style="fill: rgb(38, 50, 56); transform-origin: 272.475px 300.79px;" id="elmna8jy4hcwm" class="animable"></rect><path d="M311.13,329H233.82V272.57h77.31Zm-76.31-1h75.31V273.57H234.82Z" style="fill: rgb(38, 50, 56); transform-origin: 272.475px 300.785px;" id="el5djxshli0v2" class="animable"></path><rect x="237.87" y="276.94" width="69.22" height="51.57" style="fill: rgb(209, 209, 209); transform-origin: 272.48px 302.725px;" id="el8jz54h41y5g" class="animable"></rect><path d="M307.59,329H237.37V276.44h70.22Zm-69.22-1h68.22V277.44H238.37Z" style="fill: rgb(38, 50, 56); transform-origin: 272.48px 302.72px;" id="elg4320al9hf" class="animable"></path><g id="elip56b7zj76k"><rect x="250.01" y="296.86" width="18.4" height="1" style="fill: rgb(38, 50, 56); transform-origin: 259.21px 297.36px; transform: rotate(-45deg);" class="animable"></rect></g><g id="eln728wd1yuu"><rect x="243.65" y="303.24" width="6.13" height="1" style="fill: rgb(38, 50, 56); transform-origin: 246.715px 303.74px; transform: rotate(-45deg);" class="animable"></rect></g><g id="elkytbobaez29"><rect x="284.2" y="296.86" width="18.4" height="1" style="fill: rgb(38, 50, 56); transform-origin: 293.4px 297.36px; transform: rotate(-45deg);" class="animable"></rect></g><g id="el4rfcsi1p28d"><rect x="277.83" y="303.24" width="6.13" height="1" style="fill: rgb(38, 50, 56); transform-origin: 280.895px 303.74px; transform: rotate(-45deg);" class="animable"></rect></g><rect x="270.2" y="276.94" width="4.56" height="51.57" style="fill: rgb(38, 50, 56); transform-origin: 272.48px 302.725px;" id="elhkgougy3y2j" class="animable"></rect><path d="M275.26,329H269.7V276.44h5.56Zm-4.56-1h3.56V277.44H270.7Z" style="fill: rgb(38, 50, 56); transform-origin: 272.48px 302.72px;" id="elgi7blfu546" class="animable"></path><rect x="234.32" y="204.33" width="76.31" height="38.73" style="fill: rgb(38, 50, 56); transform-origin: 272.475px 223.695px;" id="el4u8nq5nwsh3" class="animable"></rect><path d="M311.13,243.56H233.82V203.83h77.31Zm-76.31-1h75.31V204.83H234.82Z" style="fill: rgb(38, 50, 56); transform-origin: 272.475px 223.695px;" id="elj8idfqfti1" class="animable"></path><rect x="237.87" y="208.2" width="69.22" height="34.86" style="fill: rgb(255, 255, 255); transform-origin: 272.48px 225.63px;" id="elntcf7iiwdf" class="animable"></rect><path d="M307.59,243.56H237.37V207.7h70.22Zm-69.22-1h68.22V208.7H238.37Z" style="fill: rgb(38, 50, 56); transform-origin: 272.48px 225.63px;" id="eltovfe3ims0p" class="animable"></path><g id="elr1j0s2at1r"><rect x="248.61" y="222.25" width="18.4" height="1" style="fill: rgb(38, 50, 56); transform-origin: 257.81px 222.75px; transform: rotate(-45deg);" class="animable"></rect></g><g id="el9egpemmag98"><rect x="242.24" y="228.63" width="6.13" height="1" style="fill: rgb(38, 50, 56); transform-origin: 245.305px 229.13px; transform: rotate(-45deg);" class="animable"></rect></g><g id="elx5d89enia6"><rect x="285.34" y="222.25" width="18.4" height="1" style="fill: rgb(38, 50, 56); transform-origin: 294.54px 222.75px; transform: rotate(-45deg);" class="animable"></rect></g><g id="el587x1ap5why"><rect x="278.98" y="228.63" width="6.13" height="1" style="fill: rgb(38, 50, 56); transform-origin: 282.045px 229.13px; transform: rotate(-45deg);" class="animable"></rect></g><rect x="270.2" y="208.2" width="4.56" height="34.86" style="fill: rgb(38, 50, 56); transform-origin: 272.48px 225.63px;" id="elffxncpl9xan" class="animable"></rect><path d="M275.26,243.56H269.7V207.7h5.56Zm-4.56-1h3.56V208.7H270.7Z" style="fill: rgb(38, 50, 56); transform-origin: 272.48px 225.63px;" id="el041uktm515wq" class="animable"></path><polygon points="228.54 138.65 129.18 195.6 327.9 195.6 228.54 138.65" style="fill: rgb(146, 227, 169); transform-origin: 228.54px 167.125px;" id="elj7uxhmlk6up" class="animable"></polygon><path d="M329.78,196.1H127.3l101.24-58Zm-198.73-1H326l-97.49-55.88Z" style="fill: rgb(38, 50, 56); transform-origin: 228.54px 167.1px;" id="elm3tx3suale" class="animable"></path><rect x="124.83" y="241.03" width="224.89" height="25.2" style="fill: rgb(209, 209, 209); transform-origin: 237.275px 253.63px;" id="el8y8k99cpyx" class="animable"></rect><path d="M350.21,266.73H124.33v-26.2H350.21Zm-224.88-1H349.21v-24.2H125.33Z" style="fill: rgb(38, 50, 56); transform-origin: 237.27px 253.63px;" id="el2h9t15hrmas" class="animable"></path><rect x="112.58" y="241.03" width="220.56" height="25.2" style="fill: rgb(255, 255, 255); transform-origin: 222.86px 253.63px;" id="el5g1irmi7fqj" class="animable"></rect><path d="M333.64,266.73H112.08v-26.2H333.64Zm-220.56-1H332.64v-24.2H113.08Z" style="fill: rgb(38, 50, 56); transform-origin: 222.86px 253.63px;" id="el7rk88ru41x7" class="animable"></path><rect x="328.8" y="228.72" width="7.62" height="99.79" style="fill: rgb(255, 255, 255); transform-origin: 332.61px 278.615px;" id="elbcd0rj6fu1j" class="animable"></rect><path d="M336.92,329H328.3V228.22h8.62Zm-7.62-1h6.62V229.22H329.3Z" style="fill: rgb(38, 50, 56); transform-origin: 332.61px 278.61px;" id="elmm6enuwzav" class="animable"></path><rect x="105.23" y="228.72" width="7.62" height="99.79" style="fill: rgb(255, 255, 255); transform-origin: 109.04px 278.615px;" id="elbpzg5k5lvwe" class="animable"></rect><path d="M113.35,329h-8.62V228.22h8.62Zm-7.62-1h6.62V229.22h-6.62Z" style="fill: rgb(38, 50, 56); transform-origin: 109.04px 278.61px;" id="el7ay3phgenxu" class="animable"></path></g><g id="freepik--Water--inject-2" class="animable" style="transform-origin: 252.345px 429.233px;"><g id="elqbd7yqt3b9"><path d="M427.08,407.1c7.27-9.32,13.93-19.64,16.58-31.33a43.53,43.53,0,0,0,1.07-9.32c-11.39-1.47-20.82,0-48.06,9.09-32.57,10.86-46.76,5.43-78.91-1.25s-56-5.84-91.45.84-55.53,7.51-81,0S109,368.45,71,371.37c-14.32,1.1-23.12,1.55-28.53,1.68a199.17,199.17,0,0,0,21.4,37.54c37.3,51,98.46,77,159.72,81.3C297.7,497.07,378.06,469.92,427.08,407.1Z" style="opacity: 0.19; transform-origin: 243.6px 429.233px;" class="animable"></path></g><path d="M432.1,400.29a25.28,25.28,0,0,1-3.11-.66c-14.7-4.11-3.53-7.72-21.75-9.26s-33.52,7.72-55.28,9.26-27.64-6.69-40-12.87-34.7,12.87-61.16,13.9-27.64-5.14-47.63-11.32-45.87,17-68.21,13.38-30.58-10.29-62.33-3.6c-5.17,1.09-10.09,2-14.7,2.87,1.89,2.92,3.85,5.8,5.9,8.6,37.3,51,98.46,77,159.72,81.3,74.13,5.18,154.49-22,203.51-84.79C428.8,404.89,430.49,402.62,432.1,400.29Z" style="fill: rgb(146, 227, 169); transform-origin: 245.015px 439.02px;" id="ellza4gctcf29" class="animable"></path><path d="M442.88,378.76c-3.15-.14-6.7-.25-8.1-.14-2.77.21-7.45,1.28-11.93,1.7s-12.56-1.7-20-1.49-24.06,2.34-30.24,4.26-21.51,4.47-29.39,4.47-18.32-4.68-20.42-5.21-13-4.8-17.49-5.44-16-1.91-23-1.49-20.24,2.77-25.35,3.84S241.61,385,237.35,385s-14.27-2.77-19.51-4.17-10.52-1.16-16.49-.73-21.72,3.41-26.83,4.47-23.22,3-30.88,2.56-22.37-5.33-22.37-5.33-18.53-5.75-24.28-6.39-19.8,0-26.19,1.28c-4.77.95-17.71,4.16-24,5.72A200.29,200.29,0,0,0,57.76,401.7L76.12,398c1.07-.21,14.49-1.7,21.09-2.13s19.17,2.55,19.17,2.55,20.23,5.33,24.49,4.9,14.27-3,17-3.83,19-7.67,22.57-8.95a57.52,57.52,0,0,1,18.11-2.13c5.75.43,20,7.46,22.57,8.1s14.06,4.68,25.56,4.26,26-4.69,26-4.69,22.58-7.88,26.62-9.37a19.47,19.47,0,0,1,12.66.05c3.91,1.33,8.86,5.7,13.11,7.83a46.93,46.93,0,0,0,20.24,5.11c9.16.22,22.15-2.34,26.62-3.4s24.49-6.18,28.11-6.61,13.42,1.71,16.19,2.35,3.62,2.55,4.26,3.4,3.41,2.56,6.39,3.62a28.83,28.83,0,0,0,5.27,1.14A74.94,74.94,0,0,0,442.88,378.76Z" style="fill: rgb(255, 255, 255); transform-origin: 244.84px 389.252px;" id="eloomwg9c7rlb" class="animable"></path><path d="M344.77,388.15c-6.64,0-13.76-1.39-22.2-5.35-25.59-12-59.33-5.73-73.6-.73-12.86,4.5-17.32,3.14-23.49,1.26a68.5,68.5,0,0,0-7.73-2c-11.87-2.22-19.24-.82-39,2.94l-.43.08c-21.2,4-36.29,5-55.3-1.53-19.73-6.75-33.18-10.55-59.93-3.75-26.38,6.7-40.33,9-40.47,9.05l-.16-1c.13,0,14-2.34,40.38-9,26.49-6.73,40.53-3.06,60.5,3.78,18.8,6.44,33.76,5.49,54.8,1.49l.42-.09c19.3-3.67,27.28-5.19,39.33-2.93a71.36,71.36,0,0,1,7.85,2c6.21,1.9,10.31,3.15,22.86-1.25,14.4-5,48.46-11.36,74.35.78,17.18,8.05,28.82,5.24,42.3,2a160.21,160.21,0,0,1,17.64-3.53c21.16-2.75,23.81-2.38,32.56-1.15l2.84.4c5.51.74,7.61.18,10-.47s5.35-1.42,12.28-1.05c13.64.75,17.89,1.42,32,6.82l-.36.93c-13.95-5.34-18.16-6-31.67-6.75-6.78-.37-9.54.37-12,1s-4.73,1.26-10.44.49l-2.84-.4c-8.65-1.21-11.26-1.58-32.29,1.15a159.14,159.14,0,0,0-17.53,3.51C358.46,386.56,351.89,388.15,344.77,388.15Z" style="fill: rgb(38, 50, 56); transform-origin: 247.515px 381.352px;" id="elo3rryrgk4jk" class="animable"></path><path d="M485.89,398.05a78.79,78.79,0,0,0-9.3-1.86l.15-1a82,82,0,0,1,9.43,1.89Z" style="fill: rgb(38, 50, 56); transform-origin: 481.38px 396.62px;" id="el8o0t4xd9ur7" class="animable"></path><path d="M18.58,407.86l-.06-1a442.18,442.18,0,0,0,54-8.23c23.83-5,34.36-2.57,47.7.55,4.51,1.05,9.18,2.14,14.81,3.05,10.68,1.72,22.34-2.81,33.61-7.2,12.44-4.84,24.19-9.41,34.67-6.17a127.74,127.74,0,0,1,14.55,5.56c8.58,3.74,14.78,6.45,32.91,5.74,12.62-.49,24.22-5.07,34.45-9.12,10.91-4.31,20.33-8,26.95-4.72,2.93,1.46,5.51,3.05,8,4.58,8.2,5.05,15.27,9.4,31.74,8.23,9.71-.68,18.07-2.9,26.14-5.05,9.81-2.61,19.08-5.07,29.21-4.21s11.42,2.4,12.93,4.34c1.15,1.47,2.45,3.13,8.92,4.94,8.73,2.45,18.68-.07,27.46-2.29,5.88-1.49,11-2.78,14.79-2.36l-.1,1c-3.65-.41-8.66.86-14.45,2.33-8.9,2.25-19,4.8-28,2.29-6.79-1.91-8.2-3.71-9.44-5.3s-2.44-3.13-12.23-4c-9.95-.84-19.14,1.6-28.86,4.18-8.12,2.16-16.52,4.4-26.33,5.09-16.78,1.19-24.34-3.46-32.33-8.38-2.47-1.52-5-3.09-7.92-4.54-6.22-3.11-15.45.54-26.13,4.76-10.31,4.08-22,8.7-34.78,9.19-18.36.71-24.65-2-33.35-5.83A127.49,127.49,0,0,0,203,389.81c-10.14-3.13-21.74,1.38-34,6.15-11.39,4.44-23.17,9-34.13,7.26-5.66-.92-10.35-2-14.88-3.07-13.21-3.08-23.65-5.52-47.27-.54A443.91,443.91,0,0,1,18.58,407.86Z" style="fill: rgb(38, 50, 56); transform-origin: 244.94px 396.461px;" id="eldjs5ligcyh5" class="animable"></path><path d="M137.92,412.25c0,3.27-6.71,5.92-15,5.92s-15-2.65-15-5.92,6.71-5.92,15-5.92S137.92,409,137.92,412.25Z" style="fill: rgb(255, 255, 255); transform-origin: 122.92px 412.25px;" id="elnpcyklogwuh" class="animable"></path><path d="M122.92,418.67c-8.68,0-15.49-2.82-15.49-6.42s6.81-6.42,15.49-6.42,15.5,2.82,15.5,6.42S131.61,418.67,122.92,418.67Zm0-11.84c-8.67,0-14.49,2.8-14.49,5.42s5.82,5.42,14.49,5.42,14.5-2.8,14.5-5.42S131.6,406.83,122.92,406.83Z" style="fill: rgb(38, 50, 56); transform-origin: 122.925px 412.25px;" id="el8twg824gf3h" class="animable"></path><path d="M94.41,406.33c0,1.42-2.24,2.57-5,2.57s-5-1.15-5-2.57,2.24-2.58,5-2.58S94.41,404.91,94.41,406.33Z" style="fill: rgb(255, 255, 255); transform-origin: 89.41px 406.325px;" id="eljdskhb9elfl" class="animable"></path><path d="M89.41,409.4c-3.09,0-5.5-1.35-5.5-3.07s2.41-3.08,5.5-3.08,5.5,1.35,5.5,3.08S92.49,409.4,89.41,409.4Zm0-5.15c-2.65,0-4.5,1.1-4.5,2.08s1.85,2.07,4.5,2.07,4.5-1.09,4.5-2.07S92.06,404.25,89.41,404.25Z" style="fill: rgb(38, 50, 56); transform-origin: 89.41px 406.325px;" id="elgwwtmir8gdh" class="animable"></path><path d="M349.61,407.1c0,2.42-4.48,4.38-10,4.38s-10-2-10-4.38,4.47-4.38,10-4.38S349.61,404.68,349.61,407.1Z" style="fill: rgb(255, 255, 255); transform-origin: 339.61px 407.1px;" id="eluwg84tch02" class="animable"></path><path d="M339.61,412c-5.88,0-10.49-2.15-10.49-4.88s4.61-4.88,10.49-4.88,10.5,2.15,10.5,4.88S345.5,412,339.61,412Zm0-8.76c-5.68,0-9.49,2-9.49,3.88s3.81,3.88,9.49,3.88,9.5-2,9.5-3.88S345.29,403.22,339.61,403.22Z" style="fill: rgb(38, 50, 56); transform-origin: 339.615px 407.12px;" id="elcbzjs2u55t" class="animable"></path><path d="M424.5,402.33c0,1-3,1.8-6.76,1.8s-6.76-.8-6.76-1.8,3-1.8,6.76-1.8S424.5,401.33,424.5,402.33Z" style="fill: rgb(255, 255, 255); transform-origin: 417.74px 402.33px;" id="elle43po8mq3" class="animable"></path><path d="M417.74,404.63c-2.51,0-7.27-.48-7.27-2.3s4.76-2.3,7.27-2.3,7.26.48,7.26,2.3S420.25,404.63,417.74,404.63Zm0-3.6c-4,0-6.21.91-6.27,1.3s2.26,1.3,6.27,1.3,6.2-.91,6.26-1.3S421.75,401,417.74,401Z" style="fill: rgb(38, 50, 56); transform-origin: 417.735px 402.33px;" id="el8a0jepohark" class="animable"></path><ellipse cx="442.54" cy="388.74" rx="12.35" ry="4.38" style="fill: rgb(146, 227, 169); transform-origin: 442.54px 388.74px;" id="elmi9w04tpv5" class="animable"></ellipse><path d="M442.54,393.62c-7.32,0-12.85-2.1-12.85-4.88s5.53-4.87,12.85-4.87c6.23,0,12.85,1.71,12.85,4.87S448.77,393.62,442.54,393.62Zm0-8.75c-7,0-11.85,2-11.85,3.87s4.87,3.88,11.85,3.88,11.85-2,11.85-3.88S449.53,384.87,442.54,384.87Z" style="fill: rgb(38, 50, 56); transform-origin: 442.54px 388.745px;" id="elvc8vud861g" class="animable"></path><path d="M423.73,386.68c0,1.28-2.11,2.32-4.71,2.32s-4.7-1-4.7-2.32,2.1-2.31,4.7-2.31S423.73,385.4,423.73,386.68Z" style="fill: rgb(146, 227, 169); transform-origin: 419.025px 386.685px;" id="elp3hh7kjpd4h" class="animable"></path><path d="M419,389.5c-2.92,0-5.2-1.24-5.2-2.82s2.28-2.81,5.2-2.81,5.21,1.23,5.21,2.81S421.94,389.5,419,389.5Zm0-4.63c-2.48,0-4.2.95-4.2,1.81s1.72,1.82,4.2,1.82,4.21-1,4.21-1.82S421.5,384.87,419,384.87Z" style="fill: rgb(38, 50, 56); transform-origin: 419.005px 386.685px;" id="el5wgp7vg8wod" class="animable"></path><path d="M250.82,393.2c0,1-2.76,1.8-6.17,1.8s-6.18-.81-6.18-1.8,2.77-1.8,6.18-1.8S250.82,392.2,250.82,393.2Z" style="fill: rgb(146, 227, 169); transform-origin: 244.645px 393.2px;" id="elppysqwcqkf" class="animable"></path><path d="M244.65,395.5c-3.22,0-6.68-.72-6.68-2.3s3.46-2.3,6.68-2.3,6.67.72,6.67,2.3S247.86,395.5,244.65,395.5Zm0-3.6c-3.69,0-5.68.92-5.68,1.3s2,1.3,5.68,1.3,5.67-.92,5.67-1.3S248.33,391.9,244.65,391.9Z" style="fill: rgb(38, 50, 56); transform-origin: 244.645px 393.2px;" id="eltpnjeid0a6k" class="animable"></path><path d="M96.17,384.45c0,1.28-3.82,2.31-8.53,2.31s-8.52-1-8.52-2.31,3.81-2.32,8.52-2.32S96.17,383.17,96.17,384.45Z" style="fill: rgb(146, 227, 169); transform-origin: 87.645px 384.445px;" id="eld00k5n79ech" class="animable"></path><path d="M87.64,387.26c-4.34,0-9-.88-9-2.81s4.68-2.82,9-2.82,9,.88,9,2.82S92,387.26,87.64,387.26Zm0-4.63c-5.19,0-8,1.2-8,1.82s2.83,1.81,8,1.81,8-1.2,8-1.81S92.84,382.63,87.64,382.63Z" style="fill: rgb(38, 50, 56); transform-origin: 87.64px 384.445px;" id="elwzuxluo2b3" class="animable"></path><path d="M115,389.08c0,1-1.85,1.8-4.12,1.8s-4.12-.81-4.12-1.8,1.85-1.8,4.12-1.8S115,388.08,115,389.08Z" style="fill: rgb(146, 227, 169); transform-origin: 110.88px 389.08px;" id="el4xrer7n0rgi" class="animable"></path><path d="M110.87,391.38c-2.63,0-4.62-1-4.62-2.3s2-2.3,4.62-2.3,4.62,1,4.62,2.3S113.5,391.38,110.87,391.38Zm0-3.6c-2.21,0-3.62.77-3.62,1.3s1.41,1.3,3.62,1.3,3.62-.77,3.62-1.3S113.08,387.78,110.87,387.78Z" style="fill: rgb(38, 50, 56); transform-origin: 110.87px 389.08px;" id="elc508b59pcsj" class="animable"></path></g><g id="freepik--trees-1--inject-2" class="animable" style="transform-origin: 246.522px 203.53px;"><path d="M127.63,134.31s7.65,7.6,6.79,17.35-1.82,19.1-1.82,19.1l-3.47-12.89s-2.74,7.44-2.51,5.82.28-10.28.28-10.28-2.51,5.82-2.9,2.87c-.22-1.67-.72-4.19-1.11-6.05-.3-1.41-.53-2.45-.53-2.45s-1.35,6.41-2.67,4.15-2.22-7.35-2.22-7.35-.35,6.22-1.46,3.53a49.26,49.26,0,0,1-2-6.86s1.26,10.28.18,14.16-2-3.33-2-3.33-4.1,17.57-4.65,14.46-.43-14.2-.43-14.2-4,9.76-3.81,7,2.22-8.25,2.22-8.25-3.67,7.79-3.48,4.79,2.24-11.79,2.24-11.79-8.07,13.7-8.87,10.56,2.09-9,2.09-9-1.66,7.83-2.89,5.88l-1.23-1.95s-1.45,8.12-2.39,6L90,153.36s-2.65,7.69-2.72,6.42a10.28,10.28,0,0,0-1-3.19s-2.59,10.73-2.11,5.75,2.59-17.54,2.59-17.54S83.18,162,83.21,154.88s4.48-19.11,6.85-22,15.68-17.83,20.94-19.32,10.65,4.84,12.53,9.16S127.63,134.31,127.63,134.31Z" style="fill: rgb(38, 50, 56); transform-origin: 108.849px 142.049px;" id="elhytshsrv9e" class="animable"></path><path d="M132.82,173.51l-3.76-14c-1.9,5.05-2.08,5-2.55,4.89-.22-.05-.46-.23-.38-.78.16-1.06.22-5.32.25-8-.77,1.39-1.46,2.06-2,2s-.81-1-.85-1.26c-.22-1.67-.72-4.19-1.1-6,0-.13-.05-.25-.08-.37-.44,1.43-1.08,2.81-1.9,2.94-.31,0-.77,0-1.17-.72a19.87,19.87,0,0,1-1.63-4.55c-.33,1.53-.77,1.61-1,1.64-.66.11-1-.67-1.1-1-.2-.47-.39-1-.57-1.5.19,3.1.24,6.72-.32,8.74-.22.78-.53,1.54-1.2,1.51-.25,0-.84-.05-1.4-2.48-3.1,12.87-4,12.85-4.39,12.84-.25,0-.56-.15-.68-.79a104.37,104.37,0,0,1-.45-11.74c-2.41,5.65-2.92,5.53-3.3,5.45-.54-.12-.51-.79-.49-1a17.48,17.48,0,0,1,.6-3.24c-.79,1.11-1.12,1-1.34,1-.59-.15-.54-.91-.52-1.2a82.55,82.55,0,0,1,1.58-8.87c-2.38,3.82-5.82,8.86-7.39,8.64a1,1,0,0,1-.81-.84,7,7,0,0,1-.08-2.48,1.1,1.1,0,0,1-.65-.52l-.55-.87c-1.07,5.33-1.92,5.43-2.22,5.47s-.61,0-.89-.66l-.43-1c-2,5.79-2.35,5.74-2.78,5.68a.57.57,0,0,1-.48-.61,6,6,0,0,0-.42-1.65c-1.52,6.14-1.83,6.08-2.31,6s-.53-.8-.43-1.86c.16-1.6.48-4,.85-6.49-.53,1.34-.82,1.31-1.07,1.29-.6-.07-.71-.76-.7-2.21,0-7,4.43-19.23,7-22.31,2.25-2.73,15.69-17.93,21.2-19.5s11,4.72,13.12,9.45c1.75,4,3.78,10.57,4.08,11.53.91.94,7.67,8.25,6.85,17.66-.84,9.64-1.81,19-1.82,19.11Zm-3.61-17.29L132.38,168c.35-3.49,1-9.88,1.54-16.39.83-9.4-6.57-16.88-6.65-17l-.09-.09,0-.12c0-.07-2.22-7.3-4.07-11.54-1.67-3.81-6.88-10.32-11.94-8.88-4.91,1.39-17.55,15.34-20.7,19.16-2.39,2.91-6.7,15-6.73,21.69V155c.67-2,1.69-6.33,2.52-10.33l1,.18c0,.11-1.51,9-2.26,14.77.27-1,.55-2.11.8-3.17l.32-1.31.61,1.19a14.46,14.46,0,0,1,.87,2.15c.52-1.23,1.3-3.35,2-5.31l.42-1.21,1.39,3.18a27.19,27.19,0,0,0,1.51-5.7l.23-1.27,1.9,3a26.94,26.94,0,0,1,2-5.81l1.77-3.62-.83,3.94c-.4,1.87-1.13,4.78-2.06,6a6.93,6.93,0,0,0,0,2.79.56.56,0,0,0,0,.13c.94,0,4.86-5.63,7.91-10.81l1.66-2.82-.74,3.19c0,.08-1.88,8.07-2.2,11.31a41.57,41.57,0,0,0,2.5-4.64l.92.39a49.53,49.53,0,0,0-2,6.93c.73-1.4,1.79-3.81,2.7-6.06l1-2.44,0,2.64c0,.1-.1,9.58.32,13.35A135.2,135.2,0,0,0,111.65,152l.63-2.67.36,2.72a17.07,17.07,0,0,0,.86,3.82,4.34,4.34,0,0,0,.19-.56c1-3.74-.18-13.87-.2-14l1-.17a48.72,48.72,0,0,0,2,6.78l0,.07a17.82,17.82,0,0,0,.47-3.43l.23-4.31.76,4.25c0,.05.9,5,2.16,7.18a.72.72,0,0,0,.19.24c.35-.15,1.12-2.17,1.56-4.24l.48-2.24.5,2.23s.23,1,.53,2.46c.38,1.84.89,4.39,1.12,6.09a1.54,1.54,0,0,0,0,.3,13,13,0,0,0,1.89-3.31l1-2.25v2.45c0,.26,0,4.87-.13,7.93.43-1.08.93-2.39,1.4-3.65Z" style="fill: rgb(38, 50, 56); transform-origin: 108.869px 143.182px;" id="el4ilkvt8u6od" class="animable"></path><path d="M88.7,328.5h9.24c1.66-10.05,9-55.21,9.47-68.18.52-14.61-2-34.57-1.44-71.49s6.08-63.52,6.08-63.52l-1.53-5.07c-8.63,35.58-12.18,90.86-10.25,118.36C102.09,264.44,90.14,321.73,88.7,328.5Z" style="fill: rgb(173, 173, 173); transform-origin: 100.375px 224.37px;" id="elfboz9lg80iv" class="animable"></path><path d="M98.37,329H88.08l.13-.6c1.38-6.47,13.38-64,11.56-89.77-2-27.94,1.77-83.48,10.26-118.51l.44-1.78,2.09,7,0,.12c-.06.27-5.53,27-6.07,63.43-.31,21.31.38,36.77.94,49.2.4,9,.72,16.11.5,22.3-.47,13.07-8,59.14-9.47,68.25Zm-9.05-1h8.2c1.64-10,8.93-54.88,9.39-67.69.22-6.16-.1-13.25-.5-22.22-.56-12.44-1.25-27.93-.94-49.27a378.44,378.44,0,0,1,6.06-63.49l-1-3.17c-8.17,35-11.74,89-9.81,116.4C102.55,263.82,91.18,319.17,89.32,328Z" style="fill: rgb(38, 50, 56); transform-origin: 100.32px 223.67px;" id="elz6qikfnxkbg" class="animable"></path><path d="M112.31,115.44s.52-.75-.91-16.24S99.65,78.06,99.65,78.06L102,84.6s-6.5-6.32-5.59-4.13,6.38,7.14,6.38,7.14-8.13-3.68-6.47-1a64.3,64.3,0,0,0,5.58,7s-5-2.79-4-.59a34.44,34.44,0,0,0,3.32,5.44s-4.77-4-4.67-1.93,5.32,11.52,5.32,11.52-6.67-5.11-4.67-1.92S105.59,119,108,119.35,112.46,120,112.31,115.44Z" style="fill: rgb(146, 227, 169); transform-origin: 104.249px 98.7942px;" id="el3kg62imxjgi" class="animable"></path><path d="M106.85,124.13s-.28-.87,5.56-15.28S129.76,92,129.76,92l-4.13,5.58s8.05-4.18,6.54-2.34-8.17,5-8.17,5,8.85-1.17,6.47,1a64.3,64.3,0,0,1-7.36,5.1s5.55-1.24,4,.6a34.25,34.25,0,0,1-4.76,4.25s5.73-2.45,5-.49-8.42,9.49-8.42,9.49,7.87-3,5-.5-11.77,9.83-14.19,9.47S105.39,128.46,106.85,124.13Z" style="fill: rgb(146, 227, 169); transform-origin: 119.352px 110.586px;" id="elioust9n0wn" class="animable"></path><path d="M115.67,118.94s6.79-6.18,14.1-7.06,27,11.81,27,11.81,8.38,16.88,6.6,15-7.76-9-7.76-9,.26,6.65-.66,4.45a39,39,0,0,0-3.67-5.91s1,7.57-.65,4.44a49.37,49.37,0,0,0-3-4.82c-1-1.43-1.75-2.48-1.75-2.48l-4.26-1.86s5,7.76,2.74,6.6-6.16-5.87-6.16-5.87,3.15,6.66.44,5.44-5.12-4.48-5.12-4.48l.44,5.44-3.69-3-.13,3.69-2.41-2.77-2.53-2.91h-2.89s3.84,7.58,1.53,6.42-6-6.67-6-6.67l-1.4,3.92s-1.52-9.31-3.67-5.91S115.67,118.94,115.67,118.94Z" style="fill: rgb(146, 227, 169); transform-origin: 137.928px 125.336px;" id="el88e6kt90mtg" class="animable"></path><path d="M118.07,126.27s9.17.42,15,5,10.75,27.42,10.75,27.42-6,17.86-5.91,15.25.86-11.84.86-11.84-4.51,4.88-3.61,2.68A39.16,39.16,0,0,0,136.7,158s-4.68,6-3.6,2.69a51,51,0,0,0,1.31-5.5c.33-1.71.52-3,.52-3l-1.7-4.34s-1.92,9.06-2.72,6.61-.22-8.5-.22-8.5-2.47,6.93-3.53,4.15-.46-6.78-.46-6.78l-3.53,4.15-.47-4.74-2.71,2.52.26-3.67.26-3.84-2-2s-2.65,8.08-3.46,5.62.45-9,.45-9l-3.77,1.78s5.51-7.66,1.58-6.78S118.07,126.27,118.07,126.27Z" style="fill: rgb(146, 227, 169); transform-origin: 127.575px 150.235px;" id="eloudtk339m58" class="animable"></path><path d="M110.52,120.24s-4.72-7.87-11.46-10.83-29.24,3.53-29.24,3.53-12.89,13.75-10.63,12.43,10-6.37,10-6.37-2.17,6.29-.66,4.44a39.26,39.26,0,0,1,5.22-4.59s-3.09,7-.65,4.44a48.25,48.25,0,0,1,4.22-3.76c1.35-1.1,2.39-1.87,2.39-1.87l4.62-.56s-7.07,6-4.53,5.53,7.59-3.84,7.59-3.84-4.94,5.47-2,5.07,6.19-2.8,6.19-2.8l-2,5.08,4.4-1.83-.94,3.58,3.11-2,3.26-2,2.77.82s-5.86,6.16-3.32,5.7,7.7-4.64,7.7-4.64l.22,4.16s4.14-8.47,5.22-4.6S110.52,120.24,110.52,120.24Z" style="fill: rgb(146, 227, 169); transform-origin: 85.595px 119.536px;" id="elp21tlhf7ju" class="animable"></path><path d="M106.11,126.57s-8.9-2.24-15.76.44-18.2,23.16-18.2,23.16.6,18.84,1.26,16.31S76,154.89,76,154.89s2.92,6,2.68,3.61a39.63,39.63,0,0,1,.45-6.95s2.74,7.13,2.67,3.61a50.37,50.37,0,0,1,.33-5.64c.18-1.73.37-3,.37-3l2.88-3.67s-.78,9.23.7,7.11,2.65-8.07,2.65-8.07.37,7.35,2.18,5,2.4-6.36,2.4-6.36l2.19,5,1.82-4.41,1.86,3.2.81-3.59.86-3.75,2.54-1.38s.2,8.5,1.68,6.38,2.17-8.73,2.17-8.73l3.09,2.79s-3.06-8.92.44-6.94S106.11,126.57,106.11,126.57Z" style="fill: rgb(146, 227, 169); transform-origin: 91.8963px 146.203px;" id="ela2oaziluva8" class="animable"></path><path d="M40,134.31s-7.65,7.6-6.8,17.35S35,170.76,35,170.76l3.47-12.89s2.75,7.44,2.51,5.82-.28-10.28-.28-10.28,2.51,5.82,2.91,2.87c.22-1.67.72-4.19,1.11-6.05.29-1.41.52-2.45.52-2.45s1.36,6.41,2.68,4.15,2.22-7.35,2.22-7.35.34,6.22,1.46,3.53a49.26,49.26,0,0,0,2-6.86s-1.26,10.28-.19,14.16,2-3.33,2-3.33,4.11,17.57,4.66,14.46.43-14.2.43-14.2,4,9.76,3.81,7-2.23-8.25-2.23-8.25,3.67,7.79,3.49,4.79-2.25-11.79-2.25-11.79,8.08,13.7,8.88,10.56-2.09-9-2.09-9,1.66,7.83,2.89,5.88l1.22-1.95s1.45,8.12,2.4,6l.94-2.16s2.65,7.69,2.71,6.42a10.48,10.48,0,0,1,1-3.19s2.59,10.73,2.1,5.75-2.58-17.54-2.58-17.54,3.54,17.15,3.5,10.08-4.47-19.11-6.84-22-15.68-17.83-20.95-19.32S45.93,118.4,44,122.72,40,134.31,40,134.31Z" style="fill: rgb(38, 50, 56); transform-origin: 58.7122px 142.078px;" id="el11y0gdeqoj8" class="animable"></path><path d="M34.75,173.51l-.27-2.69c0-.1-1-9.47-1.82-19.11-.83-9.41,5.94-16.72,6.85-17.66.29-1,2.33-7.54,4.07-11.53,2.07-4.73,7.66-11,13.13-9.45s18.95,16.77,21.19,19.5c2.54,3.08,6.93,15.27,7,22.31,0,1.45-.09,2.14-.7,2.21-.24,0-.53,0-1.06-1.29.36,2.51.69,4.89.84,6.49.1,1.06.17,1.76-.42,1.86s-.8.14-2.32-6a6,6,0,0,0-.41,1.65.58.58,0,0,1-.48.61c-.44.06-.75.11-2.78-5.68l-.44,1c-.27.63-.68.69-.89.66s-1.15-.14-2.21-5.47l-.55.87a1.09,1.09,0,0,1-.66.52,6.77,6.77,0,0,1-.08,2.48,1,1,0,0,1-.81.84c-1.52.2-5-4.82-7.39-8.64a82.55,82.55,0,0,1,1.58,8.87c0,.29.07,1.05-.52,1.2-.22.06-.54.14-1.33-1a17.48,17.48,0,0,1,.6,3.24c0,.22,0,.89-.49,1-.38.08-.9.2-3.31-5.45a104.37,104.37,0,0,1-.45,11.74c-.11.64-.43.78-.68.79-.43,0-1.29,0-4.39-12.84-.55,2.43-1.14,2.47-1.4,2.48-.68,0-1-.73-1.19-1.51-.56-2-.51-5.64-.33-8.75-.18.53-.36,1-.56,1.51-.12.3-.46,1.08-1.1,1-.2,0-.64-.11-1-1.64a19.41,19.41,0,0,1-1.64,4.55c-.4.69-.85.77-1.17.72-.81-.13-1.45-1.51-1.9-2.94,0,.12,0,.24-.08.37-.38,1.82-.88,4.35-1.1,6,0,.29-.15,1.16-.85,1.26s-1.25-.59-2-2c0,2.67.1,6.93.26,8,.08.55-.17.73-.38.78-.47.13-.65.17-2.55-4.89ZM55,113.83c-4.57,0-9,5.65-10.47,9.09-1.85,4.24-4,11.47-4.07,11.54l0,.12-.09.09c-.07.07-7.47,7.55-6.65,17,.57,6.51,1.2,12.9,1.55,16.39l3.17-11.79.54,1.47c.46,1.26,1,2.58,1.4,3.66-.11-3.1-.13-7.68-.14-7.94V151l1,2.25A13.33,13.33,0,0,0,43,156.52a2.6,2.6,0,0,0,.06-.3c.23-1.7.73-4.25,1.12-6.09.29-1.42.53-2.46.53-2.46l.5-2.23.47,2.24c.44,2,1.19,4,1.6,4.23a2.55,2.55,0,0,0,.16-.23c1.26-2.16,2.15-7.13,2.16-7.18l.75-4.25.24,4.31a17.82,17.82,0,0,0,.47,3.43l0-.07a50.27,50.27,0,0,0,2-6.78l1,.17c0,.1-1.23,10.23-.2,14,.08.26.14.44.19.57a17.75,17.75,0,0,0,.87-3.83l.36-2.72.62,2.67A135.37,135.37,0,0,0,59.7,165.7c.42-3.77.32-13.25.32-13.35l0-2.64,1,2.44c.92,2.25,2,4.66,2.7,6.06a50.06,50.06,0,0,0-2-6.93l.92-.39a43.48,43.48,0,0,0,2.49,4.64c-.31-3.24-2.17-11.23-2.19-11.31L62.11,141l1.66,2.82c3,5.1,6.86,10.61,7.94,10.77a.51.51,0,0,1,0-.09,6.76,6.76,0,0,0,0-2.79c-.92-1.23-1.65-4.14-2-6l-.83-3.94,1.77,3.62a27.54,27.54,0,0,1,2,5.81l1.9-3,.23,1.27a27.5,27.5,0,0,0,1.5,5.7L77.63,152l.42,1.21c.68,2,1.46,4.08,2,5.31a15,15,0,0,1,.86-2.15l.62-1.19.31,1.31c.26,1.06.54,2.16.8,3.16-.74-5.72-2.24-14.65-2.25-14.76l1-.18c.82,4,1.85,8.3,2.51,10.33a.66.66,0,0,0,0-.14c0-6.73-4.34-18.78-6.73-21.69C74,129.38,61.34,115.43,56.43,114A5.21,5.21,0,0,0,55,113.83Z" style="fill: rgb(38, 50, 56); transform-origin: 58.7448px 143.17px;" id="elebn2yfbpo0o" class="animable"></path><path d="M60.17,260.32c.46,13,7.81,58.13,9.46,68.18h9.24c-1.44-6.77-13.39-64.06-11.57-89.9,1.94-27.5-1.61-82.78-10.24-118.36l-1.53,5.07s5.53,26.6,6.07,63.52S59.64,245.71,60.17,260.32Z" style="fill: rgb(173, 173, 173); transform-origin: 67.2px 224.37px;" id="elj0xck0hujag" class="animable"></path><path d="M79.49,329H69.21l-.07-.41c-1.5-9.11-9-55.2-9.47-68.25-.23-6.19.09-13.3.5-22.3.55-12.43,1.24-27.9.93-49.2-.54-36.46-6-63.16-6.06-63.43l0-.12,2.1-7,.43,1.78c8.5,35,12.23,90.57,10.26,118.51C66,264.44,78,321.93,79.36,328.4Zm-9.43-1h8.2C76.4,319.16,65,263.84,66.8,238.56c1.93-27.39-1.63-81.38-9.8-116.4l-1,3.17a378.44,378.44,0,0,1,6.06,63.49c.32,21.34-.38,36.82-.93,49.26-.41,9-.72,16.07-.5,22.23C61.12,273.11,68.41,318,70.06,328Z" style="fill: rgb(38, 50, 56); transform-origin: 67.265px 223.645px;" id="el58flslqydon" class="animable"></path><path d="M55.27,115.44s-.52-.75.91-16.24S67.93,78.06,67.93,78.06L65.59,84.6s6.5-6.32,5.59-4.13-6.39,7.14-6.39,7.14,8.13-3.68,6.47-1a63.4,63.4,0,0,1-5.57,7s5-2.79,4-.59a35,35,0,0,1-3.33,5.44s4.78-4,4.67-1.93-5.32,11.52-5.32,11.52,6.68-5.11,4.67-1.92S62,119,59.56,119.35,55.12,120,55.27,115.44Z" style="fill: rgb(146, 227, 169); transform-origin: 63.3307px 98.7942px;" id="ela3f3ee3rpbr" class="animable"></path><path d="M60.72,124.13s.29-.87-5.55-15.28S37.82,92,37.82,92l4.12,5.58s-8-4.18-6.53-2.34,8.16,5,8.16,5-8.84-1.17-6.46,1a64.3,64.3,0,0,0,7.36,5.1s-5.55-1.24-4,.6a34.4,34.4,0,0,0,4.75,4.25s-5.73-2.45-5-.49,8.42,9.49,8.42,9.49-7.87-3-5-.5,11.78,9.83,14.2,9.47S62.19,128.46,60.72,124.13Z" style="fill: rgb(146, 227, 169); transform-origin: 48.2304px 110.586px;" id="el4u90k285o08" class="animable"></path><path d="M51.9,118.94s-6.79-6.18-14.1-7.06-27,11.81-27,11.81-8.38,16.88-6.59,15,7.76-9,7.76-9-.26,6.65.65,4.45a39.9,39.9,0,0,1,3.67-5.91s-.95,7.57.66,4.44a51.3,51.3,0,0,1,3-4.82c1-1.43,1.75-2.48,1.75-2.48l4.27-1.86s-5.05,7.76-2.74,6.6,6.15-5.87,6.15-5.87-3.15,6.66-.44,5.44S34,125.17,34,125.17l-.44,5.44,3.68-3,.13,3.69,2.42-2.77,2.53-2.91h2.89s-3.84,7.58-1.54,6.42,6-6.67,6-6.67l1.4,3.92s1.52-9.31,3.68-5.91S51.9,118.94,51.9,118.94Z" style="fill: rgb(146, 227, 169); transform-origin: 29.6249px 125.336px;" id="elyu40hfxk79" class="animable"></path><path d="M49.51,126.27s-9.17.42-15,5S23.8,158.66,23.8,158.66s6,17.86,5.91,15.25-.86-11.84-.86-11.84,4.51,4.88,3.6,2.68A40.17,40.17,0,0,1,30.87,158s4.68,6,3.61,2.69a48.83,48.83,0,0,1-1.32-5.5c-.32-1.71-.51-3-.51-3l1.7-4.34s1.91,9.06,2.72,6.61.21-8.5.21-8.5,2.48,6.93,3.53,4.15.46-6.78.46-6.78l3.53,4.15.48-4.74,2.7,2.52-.25-3.67-.27-3.84,2-2s2.64,8.08,3.45,5.62-.44-9-.44-9l3.76,1.78s-5.5-7.66-1.58-6.78S49.51,126.27,49.51,126.27Z" style="fill: rgb(146, 227, 169); transform-origin: 40.015px 150.22px;" id="el9dcfmiu5ioc" class="animable"></path><path d="M57.06,120.24s4.71-7.87,11.46-10.83,29.24,3.53,29.24,3.53,12.89,13.75,10.63,12.43-10-6.37-10-6.37,2.16,6.29.65,4.44a39.26,39.26,0,0,0-5.22-4.59s3.1,7,.66,4.44a48.25,48.25,0,0,0-4.22-3.76c-1.35-1.1-2.39-1.87-2.39-1.87l-4.63-.56s7.08,6,4.53,5.53-7.58-3.84-7.58-3.84,4.93,5.47,2,5.07-6.19-2.8-6.19-2.8l2,5.08-4.4-1.83.94,3.58-3.11-2-3.26-2-2.77.82s5.86,6.16,3.31,5.7-7.7-4.64-7.7-4.64l-.21,4.16s-4.14-8.47-5.22-4.6S57.06,120.24,57.06,120.24Z" style="fill: rgb(146, 227, 169); transform-origin: 81.985px 119.536px;" id="elvxkkttzwv4" class="animable"></path><path d="M61.46,126.57s8.91-2.24,15.77.44,18.19,23.16,18.19,23.16-.59,18.84-1.26,16.31-2.59-11.59-2.59-11.59-2.91,6-2.68,3.61a39,39,0,0,0-.44-6.95s-2.74,7.13-2.68,3.61a50.37,50.37,0,0,0-.32-5.64c-.18-1.73-.38-3-.38-3l-2.87-3.67s.78,9.23-.7,7.11-2.66-8.07-2.66-8.07-.37,7.35-2.18,5-2.4-6.36-2.4-6.36l-2.18,5-1.82-4.41-1.86,3.2-.82-3.59L66.73,137l-2.54-1.38S64,144.08,62.5,142s-2.16-8.73-2.16-8.73L57.24,136s3.07-8.92-.44-6.94S61.46,126.57,61.46,126.57Z" style="fill: rgb(146, 227, 169); transform-origin: 75.6719px 146.203px;" id="elotkp6dv48s" class="animable"></path><path d="M453.6,134.31s6.8,7.6,4.85,17.35-4,19.1-4,19.1l-2-12.89s-3.58,7.44-3.16,5.82,1.43-10.28,1.43-10.28-3.17,5.82-3.23,2.87c0-1.67-.25-4.19-.43-6.05-.14-1.41-.25-2.45-.25-2.45s-2.08,6.41-3.14,4.15-1.4-7.35-1.4-7.35-1,6.22-1.85,3.53a45.51,45.51,0,0,1-1.25-6.86s.11,10.28-1.41,14.16-1.66-3.33-1.66-3.33-6.07,17.57-6.27,14.46,1.16-14.2,1.16-14.2-5.06,9.76-4.6,7,3.15-8.25,3.15-8.25-4.54,7.79-4,4.79,3.56-11.79,3.56-11.79-9.61,13.7-10.06,10.56,3.1-9,3.1-9-2.53,7.83-3.54,5.88l-1-1.95s-2.36,8.12-3.06,6l-.7-2.16s-3.51,7.69-3.44,6.42a9.52,9.52,0,0,0-.68-3.19s-3.8,10.73-2.76,5.75,4.55-17.54,4.55-17.54-5.45,17.15-4.63,10.08,6.62-19.11,9.31-22,17.68-17.83,23.12-19.32,10.1,4.84,11.5,9.16S453.6,134.31,453.6,134.31Z" style="fill: rgb(38, 50, 56); transform-origin: 432.791px 142.079px;" id="ele5q6xcmydzd" class="animable"></path><path d="M454.41,173.5l-2.19-14c-2.48,5.1-2.63,5-3.11,4.87-.21-.08-.43-.28-.29-.83.27-1,.81-5.19,1.14-7.87-1.42,2.11-2,2-2.26,1.91-.66-.17-.68-1-.69-1.31,0-1.68-.25-4.19-.43-6l0-.3c-.62,1.47-1.43,2.88-2.27,2.93-.3,0-.73-.1-1-.76a18.15,18.15,0,0,1-1.12-4.51c-.51,1.6-1,1.63-1.18,1.64-.63,0-.89-.76-1-1-.15-.47-.28-1-.4-1.51-.16,3.13-.52,6.81-1.31,8.85-.31.79-.7,1.58-1.38,1.46-.25-.05-.81-.15-1.09-2.47-4.59,13-5.44,12.87-5.85,12.82-.24,0-.54-.2-.58-.83a104,104,0,0,1,.85-11.63c-3.05,5.66-3.52,5.5-3.91,5.37s-.41-.8-.37-1a18.36,18.36,0,0,1,.9-3.08c-.87,1-1.17.93-1.38.85-.57-.21-.44-1-.39-1.24a86.33,86.33,0,0,1,2.53-8.71c-2.85,3.86-6.86,8.87-8.33,8.51a.93.93,0,0,1-.69-.87,7,7,0,0,1,.18-2.45,1,1,0,0,1-.58-.54l-.44-.85c-1.7,5.48-2.56,5.49-2.86,5.49s-.59-.08-.8-.71l-.3-.94c-2.72,5.86-3,5.78-3.44,5.67a.56.56,0,0,1-.41-.65,5.75,5.75,0,0,0-.22-1.6c-2.23,6.2-2.51,6.13-3,6s-.44-.86-.22-1.9c.33-1.56.9-3.88,1.53-6.32-.65,1.27-.94,1.21-1.17,1.16-.59-.13-.61-.83-.45-2.25.82-7,6.58-19.21,9.45-22.29,2.55-2.73,17.67-17.91,23.35-19.47s10.56,4.75,12.11,9.49c1.29,4,2.58,10.51,2.78,11.53.85,1,6.74,8.3,4.87,17.67-1.92,9.64-3.94,19-4,19.11Zm-1.7-17.3L454.56,168c.74-3.48,2.09-9.91,3.4-16.46,1.88-9.39-4.66-16.84-4.73-16.91l-.09-.11,0-.13c0-.08-1.4-7.3-2.78-11.54-1.23-3.78-5.68-10.26-10.89-8.83s-19.31,15.36-22.88,19.19c-2.72,2.91-8.4,15-9.18,21.71v0c.9-2.05,2.4-6.32,3.67-10.31l1,.29c0,.1-2.45,8.77-3.85,14.5.36-1,.74-2,1.09-3l.45-1.25.49,1.23a12.67,12.67,0,0,1,.61,2.08c.66-1.23,1.69-3.36,2.59-5.34l.53-1.16,1,3.17a30.23,30.23,0,0,0,2.17-5.74l.35-1.2,1.56,3a31,31,0,0,1,2.69-5.87l2.25-3.72-1.34,4.13c-.61,1.89-1.67,4.79-2.72,6a6.82,6.82,0,0,0-.36,2.82v0c1.18-.29,5.6-5.74,9.15-10.79l2.05-2.92-1.17,3.37c0,.08-2.71,7.86-3.44,11.18a47.22,47.22,0,0,0,3-4.6l.88.47a57,57,0,0,0-2.77,6.77c.88-1.42,2.18-3.77,3.32-6l1.28-2.47-.34,2.76c0,.1-1.15,9.43-1.17,13.26,1.11-2.17,3.39-8.15,5.32-13.74l.91-2.65.06,2.8a17.13,17.13,0,0,0,.42,3.77,4.78,4.78,0,0,0,.28-.61c1.46-3.75,1.37-13.87,1.37-14l1-.06a46.93,46.93,0,0,0,1.23,6.76v0a18.41,18.41,0,0,0,.88-3.49l.71-4.26.28,4.31s.33,5,1.35,7.17a.65.65,0,0,0,.13.21c.38-.13,1.38-2.13,2.08-4.3l.72-2.2.25,2.3s.12,1,.26,2.45c.18,1.84.4,4.38.43,6.09a1.3,1.3,0,0,0,0,.23,15.76,15.76,0,0,0,2.27-3.33l1.23-2.28-.3,2.58c0,.25-.55,4.73-1,7.79.55-1.07,1.19-2.37,1.79-3.61Z" style="fill: rgb(38, 50, 56); transform-origin: 432.85px 143.199px;" id="el2644jxjsm1o" class="animable"></path><path d="M392.89,328.5h9.24c2.79-10.05,15.2-55.21,17.12-68.18,2.16-14.61,1.9-34.57,6.58-71.49S439,125.31,439,125.31l-1-5.07c-12.62,35.58-22.37,90.86-23.52,118.36C413.47,264.44,395.09,321.73,392.89,328.5Z" style="fill: rgb(173, 173, 173); transform-origin: 415.945px 224.37px;" id="el1z1xxvox4al" class="animable"></path><path d="M402.51,329H392.2l.21-.65c2.1-6.47,20.56-64,21.64-89.78,1.17-27.93,11.13-83.47,23.55-118.49l.62-1.75,1.33,7,0,.12a397,397,0,0,0-13.18,63.43c-2.7,21.31-3.75,36.78-4.58,49.21-.61,9-1.09,16.1-2,22.3-1.93,13.05-14.6,59.13-17.13,68.24Zm-8.93-1h8.17c2.74-9.89,15.11-54.92,17-67.75.91-6.15,1.39-13.24,2-22.22.84-12.44,1.88-27.92,4.59-49.26a399,399,0,0,1,13.18-63.49l-.59-3.11c-12.11,35-21.73,89-22.88,116.45C414,263.85,396.48,319,393.58,328Z" style="fill: rgb(38, 50, 56); transform-origin: 415.875px 223.665px;" id="el1j4reazzr72" class="animable"></path><path d="M440.4,115.44s.61-.75.91-16.24-9.38-21.14-9.38-21.14l1.61,6.54s-5.79-6.32-5.12-4.13S434,87.61,434,87.61s-7.72-3.68-6.36-1a54.63,54.63,0,0,0,4.78,7s-4.64-2.79-4-.59a30,30,0,0,0,2.72,5.44s-4.33-4-4.46-1.93,4,11.52,4,11.52-6.11-5.11-4.45-1.92,7,12.8,9.38,13.16S440,120,440.4,115.44Z" style="fill: rgb(146, 227, 169); transform-origin: 433.63px 98.7715px;" id="elfmrmhwe6gs" class="animable"></path><path d="M434,124.13s-.19-.87,7.27-15.28S460.48,92,460.48,92l-4.75,5.58s8.52-4.18,6.8-2.34-8.73,5-8.73,5,9-1.17,6.36,1a75.32,75.32,0,0,1-7.93,5.1s5.69-1.24,4,.6a40.07,40.07,0,0,1-5.23,4.25s6-2.45,5.08-.49-9.48,9.49-9.48,9.49,8.2-3,5.08-.5-12.87,9.83-15.25,9.47S432,128.46,434,124.13Z" style="fill: rgb(146, 227, 169); transform-origin: 447.975px 110.586px;" id="el22xymp4d14c" class="animable"></path><path d="M443.38,118.94s7.48-6.18,14.88-7.06,25.66,11.81,25.66,11.81,6.49,16.88,4.92,15-6.75-9-6.75-9-.49,6.65-1.16,4.45a34.22,34.22,0,0,0-3-5.91s.1,7.57-1.15,4.44a45.13,45.13,0,0,0-2.41-4.82c-.82-1.43-1.48-2.48-1.48-2.48l-4.05-1.86s4.18,7.76,2,6.6-5.5-5.87-5.5-5.87,2.4,6.66-.17,5.44-4.62-4.48-4.62-4.48l-.17,5.44-3.35-3-.54,3.69-2.1-2.77-2.21-2.91h-2.89s3,7.58.82,6.42-5.29-6.67-5.29-6.67L443,129.26s-.47-9.31-3-5.91S443.38,118.94,443.38,118.94Z" style="fill: rgb(146, 227, 169); transform-origin: 464.228px 125.336px;" id="elzr637sh3t3j" class="animable"></path><path d="M445,126.27s9.12.42,14.4,5S467,158.66,467,158.66s-8,17.86-7.62,15.25,2.19-11.84,2.19-11.84-5.06,4.88-3.91,2.68A42.36,42.36,0,0,0,460,158s-5.35,6-3.9,2.69a55.34,55.34,0,0,0,1.93-5.5c.52-1.71.85-3,.85-3l-1.21-4.34s-2.93,9.06-3.47,6.61.75-8.5.75-8.5-3.26,6.93-4,4.15.3-6.78.3-6.78l-4,4.15.06-4.74-3,2.52.67-3.67.7-3.84-1.81-2s-3.55,8.08-4.08,5.62,1.45-9,1.45-9l-4,1.78s6.37-7.66,2.34-6.78S445,126.27,445,126.27Z" style="fill: rgb(146, 227, 169); transform-origin: 452.12px 150.22px;" id="elns9gak82v3l" class="animable"></path><path d="M438.07,120.24s-3.83-7.87-10.24-10.83-29.64,3.53-29.64,3.53-14.43,13.75-12,12.43S396.9,119,396.9,119s-2.87,6.29-1.15,4.44a46.65,46.65,0,0,1,5.73-4.59s-3.87,7-1.15,4.44a56.9,56.9,0,0,1,4.64-3.76c1.47-1.1,2.6-1.87,2.6-1.87l4.69-.56s-7.74,6-5.15,5.53,8-3.84,8-3.84-5.55,5.47-2.56,5.07,6.51-2.8,6.51-2.8l-2.56,5.08,4.61-1.83-1.35,3.58,3.34-2,3.49-2,2.67.82s-6.55,6.16-3.95,5.7,8.22-4.64,8.22-4.64l-.25,4.16s5.09-8.47,5.73-4.6S438.07,120.24,438.07,120.24Z" style="fill: rgb(146, 227, 169); transform-origin: 412.538px 119.536px;" id="elnvrkjjxc7b" class="animable"></path><path d="M433,126.57s-8.65-2.24-15.81.44-20.8,23.16-20.8,23.16-1.52,18.84-.57,16.31,3.89-11.59,3.89-11.59,2.24,6,2.28,3.61a41,41,0,0,1,1.22-6.95s1.94,7.13,2.27,3.61a51.49,51.49,0,0,1,1-5.64c.37-1.73.71-3,.71-3l3.29-3.67s-1.82,9.23-.1,7.11,3.56-8.07,3.56-8.07-.45,7.35,1.62,5a18.31,18.31,0,0,0,3.12-6.36l1.62,5,2.31-4.41,1.5,3.2,1.22-3.59,1.28-3.75,2.69-1.38s-.75,8.5,1,6.38,3.15-8.73,3.15-8.73l2.78,2.79s-2.06-8.92,1.22-6.94S433,126.57,433,126.57Z" style="fill: rgb(146, 227, 169); transform-origin: 416.884px 146.203px;" id="elrbl93dxp2fd" class="animable"></path><path d="M346.47,134.31s-7.65,7.6-6.79,17.35,1.82,19.1,1.82,19.1L345,157.87s2.75,7.44,2.51,5.82-.27-10.28-.27-10.28,2.51,5.82,2.9,2.87c.22-1.67.72-4.19,1.11-6.05.29-1.41.53-2.45.53-2.45s1.35,6.41,2.67,4.15,2.22-7.35,2.22-7.35.34,6.22,1.46,3.53a49.26,49.26,0,0,0,2-6.86s-1.26,10.28-.19,14.16,2-3.33,2-3.33,4.1,17.57,4.65,14.46.43-14.2.43-14.2,4,9.76,3.81,7-2.22-8.25-2.22-8.25,3.67,7.79,3.48,4.79-2.24-11.79-2.24-11.79,8.07,13.7,8.87,10.56-2.09-9-2.09-9,1.66,7.83,2.89,5.88l1.23-1.95s1.44,8.12,2.39,6l.94-2.16s2.65,7.69,2.71,6.42a10.48,10.48,0,0,1,1.05-3.19s2.59,10.73,2.11,5.75-2.59-17.54-2.59-17.54,3.54,17.15,3.51,10.08-4.48-19.11-6.85-22-15.68-17.83-21-19.32-10.64,4.84-12.53,9.16S346.47,134.31,346.47,134.31Z" style="fill: rgb(38, 50, 56); transform-origin: 365.241px 142.079px;" id="elg53f0tha2ca" class="animable"></path><path d="M341.28,173.51l-.28-2.69c0-.1-1-9.47-1.82-19.11-.82-9.41,5.94-16.72,6.85-17.66.3-1,2.33-7.54,4.08-11.53,2.06-4.73,7.66-11,13.12-9.45s18.95,16.77,21.2,19.5c2.53,3.08,6.93,15.27,7,22.31,0,1.45-.1,2.14-.7,2.21-.24,0-.54,0-1.07-1.29.37,2.51.69,4.89.85,6.49.1,1.06.16,1.76-.43,1.86s-.79.14-2.32-6a6.32,6.32,0,0,0-.41,1.65.57.57,0,0,1-.48.61c-.44.06-.75.1-2.78-5.68l-.43,1c-.28.63-.68.69-.89.66s-1.15-.14-2.22-5.47l-.55.87a1.1,1.1,0,0,1-.65.52,7,7,0,0,1-.09,2.48,1,1,0,0,1-.81.84h-.1c-1.59,0-4.95-4.9-7.28-8.64a82.55,82.55,0,0,1,1.58,8.87c0,.29.06,1.05-.52,1.2-.22.06-.55.15-1.34-1a17.48,17.48,0,0,1,.6,3.24c0,.22,0,.89-.49,1-.38.08-.9.2-3.31-5.45a99.83,99.83,0,0,1-.45,11.74c-.11.64-.43.78-.67.79-.4,0-1.29.05-4.39-12.84-.56,2.43-1.15,2.47-1.41,2.48-.65,0-1-.73-1.19-1.51-.56-2-.51-5.64-.33-8.74-.17.52-.36,1-.56,1.5-.12.3-.46,1.08-1.1,1-.2,0-.64-.11-1-1.64a19.58,19.58,0,0,1-1.64,4.55c-.4.69-.85.77-1.16.72-.82-.13-1.46-1.51-1.9-2.94,0,.12,0,.24-.08.37-.38,1.83-.88,4.35-1.11,6,0,.29-.15,1.16-.84,1.26s-1.26-.59-2-2c0,2.67.1,6.93.26,8,.08.55-.16.73-.38.78-.47.12-.65.17-2.55-4.89Zm20.21-59.68c-4.57,0-9,5.65-10.47,9.09-1.85,4.24-4,11.47-4.07,11.54l0,.12-.09.09c-.08.07-7.48,7.55-6.66,17,.58,6.51,1.2,12.9,1.55,16.39l3.17-11.79.54,1.47c.47,1.26,1,2.58,1.4,3.65-.11-3.09-.13-7.67-.13-7.93V151l1,2.25a13.39,13.39,0,0,0,1.88,3.31,2.6,2.6,0,0,0,.06-.3c.23-1.7.73-4.25,1.12-6.09.3-1.42.53-2.46.53-2.46l.5-2.23.48,2.24c.43,2,1.18,4,1.6,4.23,0,0,.06-.08.15-.23,1.26-2.16,2.15-7.13,2.16-7.18l.75-4.25.24,4.31a17.82,17.82,0,0,0,.47,3.43l0-.07a48.72,48.72,0,0,0,2-6.78l1,.17c0,.1-1.24,10.23-.2,14a3.72,3.72,0,0,0,.19.57,17.85,17.85,0,0,0,.86-3.83l.36-2.72.63,2.67a136,136,0,0,0,3.77,13.73c.42-3.77.32-13.25.32-13.35l0-2.64,1,2.44c.91,2.25,2,4.66,2.7,6.06a49.53,49.53,0,0,0-2-6.93l.92-.39a41.57,41.57,0,0,0,2.5,4.64c-.32-3.24-2.18-11.23-2.2-11.31l-.74-3.19,1.66,2.82c3,5.1,6.86,10.61,7.93,10.77a.92.92,0,0,1,0-.09,6.93,6.93,0,0,0,0-2.79c-.93-1.23-1.66-4.14-2.06-6l-.83-3.94,1.77,3.62a27.54,27.54,0,0,1,2,5.81l1.9-3,.23,1.27a28,28,0,0,0,1.5,5.7l1.4-3.18.41,1.21c.68,2,1.46,4.08,2,5.31a15,15,0,0,1,.86-2.15l.62-1.19.31,1.31c.26,1.06.54,2.16.81,3.17-.75-5.72-2.24-14.66-2.26-14.77l1-.18c.83,4,1.85,8.3,2.52,10.33v-.14c0-6.73-4.34-18.78-6.74-21.69-3.14-3.82-15.79-17.77-20.69-19.16A5.33,5.33,0,0,0,361.49,113.83Z" style="fill: rgb(38, 50, 56); transform-origin: 365.271px 143.17px;" id="ell2pfg9kk2o" class="animable"></path><path d="M366.69,260.32c.46,13,7.81,58.13,9.46,68.18h9.25c-1.44-6.77-13.39-64.06-11.57-89.9,1.93-27.5-1.62-82.78-10.25-118.36l-1.53,5.07s5.53,26.6,6.07,63.52S366.17,245.71,366.69,260.32Z" style="fill: rgb(173, 173, 173); transform-origin: 373.725px 224.37px;" id="elrv4tj9o0qw" class="animable"></path><path d="M386,329H375.73l-.07-.41c-1.5-9.1-9-55.16-9.47-68.25h0c-.22-6.19.1-13.3.5-22.3.56-12.43,1.25-27.89.93-49.2-.53-36.45-6-63.16-6.06-63.43l0-.12,2.09-7,.44,1.78c8.49,35,12.22,90.57,10.25,118.51-1.81,25.78,10.19,83.3,11.57,89.77Zm-9.43-1h8.2c-1.86-8.83-13.23-64.19-11.45-89.44,1.92-27.39-1.64-81.38-9.81-116.4l-.95,3.17a377.84,377.84,0,0,1,6.05,63.49c.32,21.34-.37,36.82-.93,49.27-.4,9-.72,16.06-.5,22.22h0C367.65,273.14,374.93,318,376.58,328Z" style="fill: rgb(38, 50, 56); transform-origin: 373.78px 223.645px;" id="el0duei0jmzarh" class="animable"></path><path d="M361.79,115.44s-.52-.75.91-16.24,11.75-21.14,11.75-21.14l-2.34,6.54s6.5-6.32,5.59-4.13-6.38,7.14-6.38,7.14,8.13-3.68,6.46-1a63.4,63.4,0,0,1-5.57,7s5-2.79,4-.59a34.44,34.44,0,0,1-3.32,5.44s4.77-4,4.67-1.93-5.33,11.52-5.33,11.52S379,103,377,106.19s-8.44,12.8-10.87,13.16S361.64,120,361.79,115.44Z" style="fill: rgb(146, 227, 169); transform-origin: 369.852px 98.7963px;" id="el5o1ugaix8k9" class="animable"></path><path d="M367.25,124.13s.28-.87-5.56-15.28S344.34,92,344.34,92l4.13,5.58s-8.05-4.18-6.54-2.34,8.17,5,8.17,5-8.85-1.17-6.47,1a64.3,64.3,0,0,0,7.36,5.1s-5.55-1.24-4,.6a34.4,34.4,0,0,0,4.75,4.25s-5.73-2.45-5-.49,8.42,9.49,8.42,9.49-7.87-3-5-.5,11.77,9.83,14.19,9.47S368.71,128.46,367.25,124.13Z" style="fill: rgb(146, 227, 169); transform-origin: 354.748px 110.586px;" id="el8ef9obedhr" class="animable"></path><path d="M358.42,118.94s-6.78-6.18-14.09-7.06-27,11.81-27,11.81-8.37,16.88-6.59,15,7.76-9,7.76-9-.26,6.65.65,4.45a39.67,39.67,0,0,1,3.68-5.91s-.95,7.57.65,4.44a49.37,49.37,0,0,1,3-4.82c1-1.43,1.75-2.48,1.75-2.48l4.26-1.86s-5,7.76-2.74,6.6,6.16-5.87,6.16-5.87-3.15,6.66-.44,5.44,5.12-4.48,5.12-4.48l-.44,5.44,3.69-3,.13,3.69,2.41-2.77,2.53-2.91h2.89s-3.84,7.58-1.53,6.42,6-6.67,6-6.67l1.41,3.92s1.52-9.31,3.67-5.91S358.42,118.94,358.42,118.94Z" style="fill: rgb(146, 227, 169); transform-origin: 336.186px 125.336px;" id="elf2p769wppt" class="animable"></path><path d="M356,126.27s-9.17.42-15,5-10.75,27.42-10.75,27.42,6,17.86,5.91,15.25-.86-11.84-.86-11.84,4.51,4.88,3.61,2.68A39.16,39.16,0,0,1,337.4,158s4.68,6,3.6,2.69a51.09,51.09,0,0,1-1.32-5.5c-.32-1.71-.51-3-.51-3l1.7-4.34s1.92,9.06,2.72,6.61.21-8.5.21-8.5,2.48,6.93,3.53,4.15.47-6.78.47-6.78l3.53,4.15.47-4.74,2.7,2.52-.25-3.67-.26-3.84,2-2s2.65,8.08,3.45,5.62-.44-9-.44-9l3.77,1.78s-5.51-7.66-1.58-6.78S356,126.27,356,126.27Z" style="fill: rgb(146, 227, 169); transform-origin: 346.51px 150.235px;" id="elldgt3v8n4n" class="animable"></path><path d="M363.58,120.24s4.71-7.87,11.46-10.83,29.24,3.53,29.24,3.53,12.89,13.75,10.63,12.43-10-6.37-10-6.37,2.17,6.29.66,4.44a39.26,39.26,0,0,0-5.22-4.59s3.09,7,.65,4.44a48.25,48.25,0,0,0-4.22-3.76c-1.35-1.1-2.39-1.87-2.39-1.87l-4.62-.56s7.07,6,4.53,5.53-7.59-3.84-7.59-3.84,4.94,5.47,2,5.07-6.2-2.8-6.2-2.8l2,5.08-4.4-1.83.94,3.58-3.11-2-3.26-2-2.77.82s5.86,6.16,3.32,5.7-7.71-4.64-7.71-4.64l-.21,4.16s-4.14-8.47-5.22-4.6S363.58,120.24,363.58,120.24Z" style="fill: rgb(146, 227, 169); transform-origin: 388.5px 119.536px;" id="el5gaj3haz9y" class="animable"></path><path d="M368,126.57s8.9-2.24,15.76.44S402,150.17,402,150.17s-.6,18.84-1.27,16.31-2.59-11.59-2.59-11.59-2.91,6-2.67,3.61a39.63,39.63,0,0,0-.45-6.95s-2.74,7.13-2.68,3.61a48.1,48.1,0,0,0-.32-5.64c-.18-1.73-.37-3-.37-3l-2.88-3.67s.78,9.23-.7,7.11-2.65-8.07-2.65-8.07-.38,7.35-2.19,5-2.4-6.36-2.4-6.36l-2.18,5-1.82-4.41-1.86,3.2-.82-3.59-.85-3.75-2.54-1.38s-.2,8.5-1.68,6.38-2.17-8.73-2.17-8.73L363.77,136s3.06-8.92-.45-6.94S368,126.57,368,126.57Z" style="fill: rgb(146, 227, 169); transform-origin: 382.223px 146.203px;" id="elb97u3dyjh3k" class="animable"></path></g><g id="freepik--Chairs--inject-2" class="animable" style="transform-origin: 231.615px 316.27px;"><polygon points="174.05 321.93 191.57 321.93 195.51 304.04 177.98 304.04 174.05 321.93" style="fill: rgb(255, 255, 255); transform-origin: 184.78px 312.985px;" id="eliwame7frvkb" class="animable"></polygon><path d="M192,322.43H173.42l4.16-18.89h18.55Zm-17.3-1h16.5l3.72-16.89H178.38Z" style="fill: rgb(38, 50, 56); transform-origin: 184.775px 312.985px;" id="el0ovk4l1z2ru" class="animable"></path><rect x="162.24" y="324.79" width="2.15" height="3.72" style="fill: rgb(255, 255, 255); transform-origin: 163.315px 326.65px;" id="el9ql30m5p8o" class="animable"></rect><path d="M164.89,329h-3.15v-4.71h3.15Zm-2.15-1h1.15v-2.71h-1.15Z" style="fill: rgb(38, 50, 56); transform-origin: 163.315px 326.645px;" id="elrh0szfrh5n" class="animable"></path><rect x="171.86" y="324.79" width="2.15" height="3.72" style="fill: rgb(255, 255, 255); transform-origin: 172.935px 326.65px;" id="elw8dlu206zfi" class="animable"></rect><path d="M174.5,329h-3.14v-4.71h3.14Zm-2.14-1h1.14v-2.71h-1.14Z" style="fill: rgb(38, 50, 56); transform-origin: 172.93px 326.645px;" id="elsp8mp5xlmnn" class="animable"></path><rect x="193.35" y="324.79" width="2.15" height="3.72" style="fill: rgb(255, 255, 255); transform-origin: 194.425px 326.65px;" id="el4a6km6pkm19" class="animable"></rect><path d="M196,329h-3.14v-4.71H196Zm-2.14-1H195v-2.71h-1.14Z" style="fill: rgb(38, 50, 56); transform-origin: 194.43px 326.645px;" id="elrh9vg6v088b" class="animable"></path><rect x="175.82" y="324.79" width="2.15" height="3.72" style="fill: rgb(255, 255, 255); transform-origin: 176.895px 326.65px;" id="elh6iiav1yzva" class="animable"></rect><path d="M178.47,329h-3.15v-4.71h3.15Zm-2.15-1h1.15v-2.71h-1.15Z" style="fill: rgb(38, 50, 56); transform-origin: 176.895px 326.645px;" id="ela7jwunxs1ho" class="animable"></path><rect x="161.63" y="322.25" width="29.95" height="2.53" style="fill: rgb(255, 255, 255); transform-origin: 176.605px 323.515px;" id="el7zi4nrtxkir" class="animable"></rect><path d="M192.07,325.29H161.12v-3.54h30.95Zm-29.95-1h28.95v-1.54H162.12Z" style="fill: rgb(38, 50, 56); transform-origin: 176.595px 323.52px;" id="elz7l8zax6qfj" class="animable"></path><rect x="175.5" y="322.25" width="21.08" height="2.53" style="fill: rgb(255, 255, 255); transform-origin: 186.04px 323.515px;" id="elk01ndd42ir9" class="animable"></rect><path d="M197.08,325.29H175v-3.54h22.08Zm-21.08-1h20.08v-1.54H176Z" style="fill: rgb(38, 50, 56); transform-origin: 186.04px 323.52px;" id="elpykmuodas" class="animable"></path><polygon points="226.56 321.93 244.09 321.93 248.02 304.04 230.49 304.04 226.56 321.93" style="fill: rgb(255, 255, 255); transform-origin: 237.29px 312.985px;" id="elt9ewzhptoa" class="animable"></polygon><path d="M244.49,322.43H225.94l4.15-18.89h18.55Zm-17.31-1h16.5l3.72-16.89H230.9Z" style="fill: rgb(38, 50, 56); transform-origin: 237.29px 312.985px;" id="elgfi2my5lyx" class="animable"></path><rect x="214.76" y="324.79" width="2.15" height="3.72" style="fill: rgb(255, 255, 255); transform-origin: 215.835px 326.65px;" id="eltjgxsq2fz1" class="animable"></rect><path d="M217.4,329h-3.14v-4.71h3.14Zm-2.14-1h1.14v-2.71h-1.14Z" style="fill: rgb(38, 50, 56); transform-origin: 215.83px 326.645px;" id="el0leptka1ucp" class="animable"></path><rect x="224.37" y="324.79" width="2.15" height="3.72" style="fill: rgb(255, 255, 255); transform-origin: 225.445px 326.65px;" id="elddqb2ea3xl" class="animable"></rect><path d="M227,329h-3.15v-4.71H227Zm-2.15-1H226v-2.71h-1.15Z" style="fill: rgb(38, 50, 56); transform-origin: 225.425px 326.645px;" id="elynb2k67d3yr" class="animable"></path><rect x="245.86" y="324.79" width="2.15" height="3.72" style="fill: rgb(255, 255, 255); transform-origin: 246.935px 326.65px;" id="elz8f7craqh2m" class="animable"></rect><path d="M248.51,329h-3.15v-4.71h3.15Zm-2.15-1h1.15v-2.71h-1.15Z" style="fill: rgb(38, 50, 56); transform-origin: 246.935px 326.645px;" id="elcw7jtel23dq" class="animable"></path><rect x="228.34" y="324.79" width="2.15" height="3.72" style="fill: rgb(255, 255, 255); transform-origin: 229.415px 326.65px;" id="ell35iim18rk8" class="animable"></rect><path d="M231,329h-3.15v-4.71H231Zm-2.15-1H230v-2.71h-1.15Z" style="fill: rgb(38, 50, 56); transform-origin: 229.425px 326.645px;" id="elfvlva7uxz0w" class="animable"></path><rect x="214.14" y="322.25" width="29.95" height="2.53" style="fill: rgb(255, 255, 255); transform-origin: 229.115px 323.515px;" id="el060fysri0sjm" class="animable"></rect><path d="M244.59,325.29h-31v-3.54h31Zm-30-1h29v-1.54h-29Z" style="fill: rgb(38, 50, 56); transform-origin: 229.09px 323.52px;" id="elhnf47yevzno" class="animable"></path><rect x="228.02" y="322.25" width="21.08" height="2.53" style="fill: rgb(255, 255, 255); transform-origin: 238.56px 323.515px;" id="elvac24feyrb" class="animable"></rect><path d="M249.6,325.29H227.52v-3.54H249.6Zm-21.08-1H248.6v-1.54H228.52Z" style="fill: rgb(38, 50, 56); transform-origin: 238.56px 323.52px;" id="elcy5nzu3rqcr" class="animable"></path><polygon points="279.07 321.93 296.6 321.93 300.53 304.04 283.01 304.04 279.07 321.93" style="fill: rgb(255, 255, 255); transform-origin: 289.8px 312.985px;" id="el6qhtspv00vt" class="animable"></polygon><path d="M297,322.43H278.45l4.16-18.89h18.55Zm-17.3-1h16.5l3.71-16.89h-16.5Z" style="fill: rgb(38, 50, 56); transform-origin: 289.805px 312.985px;" id="elbnreehrgh9" class="animable"></path><rect x="267.27" y="324.79" width="2.15" height="3.72" style="fill: rgb(255, 255, 255); transform-origin: 268.345px 326.65px;" id="el5egxqft0nkd" class="animable"></rect><path d="M269.92,329h-3.15v-4.71h3.15Zm-2.15-1h1.15v-2.71h-1.15Z" style="fill: rgb(38, 50, 56); transform-origin: 268.345px 326.645px;" id="elrf2ul13rnp8" class="animable"></path><rect x="276.88" y="324.79" width="2.15" height="3.72" style="fill: rgb(255, 255, 255); transform-origin: 277.955px 326.65px;" id="elgjomubd1f16" class="animable"></rect><path d="M279.53,329h-3.15v-4.71h3.15Zm-2.15-1h1.15v-2.71h-1.15Z" style="fill: rgb(38, 50, 56); transform-origin: 277.955px 326.645px;" id="elj7a1pmzhqp" class="animable"></path><rect x="298.37" y="324.79" width="2.15" height="3.72" style="fill: rgb(255, 255, 255); transform-origin: 299.445px 326.65px;" id="elkvrfyd6rc18" class="animable"></rect><path d="M301,329h-3.15v-4.71H301Zm-2.15-1H300v-2.71h-1.15Z" style="fill: rgb(38, 50, 56); transform-origin: 299.425px 326.645px;" id="eloitse5y3r6p" class="animable"></path><rect x="280.85" y="324.79" width="2.15" height="3.72" style="fill: rgb(255, 255, 255); transform-origin: 281.925px 326.65px;" id="elsmzit7mn5co" class="animable"></rect><path d="M283.49,329h-3.14v-4.71h3.14Zm-2.14-1h1.14v-2.71h-1.14Z" style="fill: rgb(38, 50, 56); transform-origin: 281.92px 326.645px;" id="elotcmei6k2vl" class="animable"></path><rect x="266.65" y="322.25" width="29.95" height="2.53" style="fill: rgb(255, 255, 255); transform-origin: 281.625px 323.515px;" id="eln1dahbq0djh" class="animable"></rect><path d="M297.1,325.29h-31v-3.54h31Zm-30-1h29v-1.54h-29Z" style="fill: rgb(38, 50, 56); transform-origin: 281.6px 323.52px;" id="elfr1ec1nv9q" class="animable"></path><rect x="280.53" y="322.25" width="21.08" height="2.53" style="fill: rgb(255, 255, 255); transform-origin: 291.07px 323.515px;" id="el7fi5srzjsho" class="animable"></rect><path d="M302.11,325.29H280v-3.54h22.08Zm-21.08-1h20.08v-1.54H281Z" style="fill: rgb(38, 50, 56); transform-origin: 291.055px 323.52px;" id="el3stz34qyc3p" class="animable"></path></g><g id="freepik--Floor--inject-2" class="animable" style="transform-origin: 247.94px 328.5px;"><rect x="16.89" y="328" width="462.1" height="1" style="fill: rgb(38, 50, 56); transform-origin: 247.94px 328.5px;" id="elokodux2fkg" class="animable"></rect></g><defs>     <filter id="active" height="200%">         <feMorphology in="SourceAlpha" result="DILATED" operator="dilate" radius="2"></feMorphology>                <feFlood flood-color="#32DFEC" flood-opacity="1" result="PINK"></feFlood>        <feComposite in="PINK" in2="DILATED" operator="in" result="OUTLINE"></feComposite>        <feMerge>            <feMergeNode in="OUTLINE"></feMergeNode>            <feMergeNode in="SourceGraphic"></feMergeNode>        </feMerge>    </filter>    <filter id="hover" height="200%">        <feMorphology in="SourceAlpha" result="DILATED" operator="dilate" radius="2"></feMorphology>                <feFlood flood-color="#ff0000" flood-opacity="0.5" result="PINK"></feFlood>        <feComposite in="PINK" in2="DILATED" operator="in" result="OUTLINE"></feComposite>        <feMerge>            <feMergeNode in="OUTLINE"></feMergeNode>            <feMergeNode in="SourceGraphic"></feMergeNode>        </feMerge>            <feColorMatrix type="matrix" values="0   0   0   0   0                0   1   0   0   0                0   0   0   0   0                0   0   0   1   0 "></feColorMatrix>    </filter></defs></svg>